<svg xmlns="http://www.w3.org/2000/svg" viewBox="0 0 330 199.992"><g><g><g><g><g><line x1="58" x2="53" y1="177.992" y2="177.992" fill="#000" stroke="#CCC" stroke-width="1" visibility="inherit"/><line x1="58" x2="53" y1="163.159" y2="163.159" fill="#000" stroke="#CCC" stroke-width="1" visibility="inherit"/><line x1="58" x2="53" y1="148.327" y2="148.327" fill="#000" stroke="#CCC" stroke-width="1" visibility="inherit"/><line x1="58" x2="53" y1="133.494" y2="133.494" fill="#000" stroke="#CCC" stroke-width="1" visibility="inherit"/><line x1="58" x2="53" y1="118.661" y2="118.661" fill="#000" stroke="#CCC" stroke-width="1" visibility="inherit"/><line x1="58" x2="53" y1="103.829" y2="103.829" fill="#000" stroke="#CCC" stroke-width="1" visibility="inherit"/><line x1="58" x2="53" y1="88.996" y2="88.996" fill="#000" stroke="#CCC" stroke-width="1" visibility="inherit"/><line x1="58" x2="53" y1="74.163" y2="74.163" fill="#000" stroke="#CCC" stroke-width="1" visibility="inherit"/><line x1="58" x2="53" y1="59.331" y2="59.331" fill="#000" stroke="#CCC" stroke-width="1" visibility="inherit"/><line x1="58" x2="53" y1="44.498" y2="44.498" fill="#000" stroke="#CCC" stroke-width="1" visibility="inherit"/><line x1="58" x2="53" y1="29.665" y2="29.665" fill="#000" stroke="#CCC" stroke-width="1" visibility="inherit"/><line x1="58" x2="53" y1="14.833" y2="14.833" fill="#000" stroke="#CCC" stroke-width="1" visibility="inherit"/><line x1="58" x2="53" y1="0" y2="0" fill="#000" stroke="#CCC" stroke-width="1" visibility="inherit"/></g><g><text x="0" y="177.992" fill="#32313F" stroke="none" stroke-width="1" dx="0em" dy=".3em" font-family="&quot;Helvetica Neue&quot;, sans-serif" font-size="12" font-weight="200" text-anchor="end" transform="translate(48, 0)" visibility="hidden">-0.1</text><text x="0" y="163.159" fill="#32313F" stroke="none" stroke-width="1" dx="0em" dy=".3em" font-family="&quot;Helvetica Neue&quot;, sans-serif" font-size="12" font-weight="200" text-anchor="end" transform="translate(48, 0)" visibility="inherit">0</text><text x="0" y="148.327" fill="#32313F" stroke="none" stroke-width="1" dx="0em" dy=".3em" font-family="&quot;Helvetica Neue&quot;, sans-serif" font-size="12" font-weight="200" text-anchor="end" transform="translate(48, 0)" visibility="hidden">0.1</text><text x="0" y="133.494" fill="#32313F" stroke="none" stroke-width="1" dx="0em" dy=".3em" font-family="&quot;Helvetica Neue&quot;, sans-serif" font-size="12" font-weight="200" text-anchor="end" transform="translate(48, 0)" visibility="inherit">0.2</text><text x="0" y="118.661" fill="#32313F" stroke="none" stroke-width="1" dx="0em" dy=".3em" font-family="&quot;Helvetica Neue&quot;, sans-serif" font-size="12" font-weight="200" text-anchor="end" transform="translate(48, 0)" visibility="hidden">0.3</text><text x="0" y="103.829" fill="#32313F" stroke="none" stroke-width="1" dx="0em" dy=".3em" font-family="&quot;Helvetica Neue&quot;, sans-serif" font-size="12" font-weight="200" text-anchor="end" transform="translate(48, 0)" visibility="inherit">0.4</text><text x="0" y="88.996" fill="#32313F" stroke="none" stroke-width="1" dx="0em" dy=".3em" font-family="&quot;Helvetica Neue&quot;, sans-serif" font-size="12" font-weight="200" text-anchor="end" transform="translate(48, 0)" visibility="hidden">0.5</text><text x="0" y="74.163" fill="#32313F" stroke="none" stroke-width="1" dx="0em" dy=".3em" font-family="&quot;Helvetica Neue&quot;, sans-serif" font-size="12" font-weight="200" text-anchor="end" transform="translate(48, 0)" visibility="inherit">0.6</text><text x="0" y="59.331" fill="#32313F" stroke="none" stroke-width="1" dx="0em" dy=".3em" font-family="&quot;Helvetica Neue&quot;, sans-serif" font-size="12" font-weight="200" text-anchor="end" transform="translate(48, 0)" visibility="hidden">0.7</text><text x="0" y="44.498" fill="#32313F" stroke="none" stroke-width="1" dx="0em" dy=".3em" font-family="&quot;Helvetica Neue&quot;, sans-serif" font-size="12" font-weight="200" text-anchor="end" transform="translate(48, 0)" visibility="inherit">0.8</text><text x="0" y="29.665" fill="#32313F" stroke="none" stroke-width="1" dx="0em" dy=".3em" font-family="&quot;Helvetica Neue&quot;, sans-serif" font-size="12" font-weight="200" text-anchor="end" transform="translate(48, 0)" visibility="hidden">0.9</text><text x="0" y="14.833" fill="#32313F" stroke="none" stroke-width="1" dx="0em" dy=".3em" font-family="&quot;Helvetica Neue&quot;, sans-serif" font-size="12" font-weight="200" text-anchor="end" transform="translate(48, 0)" visibility="inherit">1</text><text x="0" y="0" fill="#32313F" stroke="none" stroke-width="1" dx="0em" dy=".3em" font-family="&quot;Helvetica Neue&quot;, sans-serif" font-size="12" font-weight="200" text-anchor="end" transform="translate(48, 0)" visibility="hidden">1.1</text></g><line x1="58" x2="58" y1="0" y2="177.992" fill="#000" stroke="#CCC" stroke-width="1"/></g></g><g clip-path="url(#clip_0)" transform="translate(58, 0)"><clipPath id="clip_0"><rect width="271" height="177"/></clipPath><g><g><g><line x1="0" x2="0" y1="0" y2="177.992" fill="#000" stroke="#3C3C3C" stroke-width="1" opacity=".25"/><line x1="30.222" x2="30.222" y1="0" y2="177.992" fill="#000" stroke="#3C3C3C" stroke-width="1" opacity=".25"/><line x1="60.444" x2="60.444" y1="0" y2="177.992" fill="#000" stroke="#3C3C3C" stroke-width="1" opacity=".25"/><line x1="90.667" x2="90.667" y1="0" y2="177.992" fill="#000" stroke="#3C3C3C" stroke-width="1" opacity=".25"/><line x1="120.889" x2="120.889" y1="0" y2="177.992" fill="#000" stroke="#3C3C3C" stroke-width="1" opacity=".25"/><line x1="151.111" x2="151.111" y1="0" y2="177.992" fill="#000" stroke="#3C3C3C" stroke-width="1" opacity=".25"/><line x1="181.333" x2="181.333" y1="0" y2="177.992" fill="#000" stroke="#3C3C3C" stroke-width="1" opacity=".25"/><line x1="211.556" x2="211.556" y1="0" y2="177.992" fill="#000" stroke="#3C3C3C" stroke-width="1" opacity=".25"/><line x1="241.778" x2="241.778" y1="0" y2="177.992" fill="#000" stroke="#3C3C3C" stroke-width="1" opacity=".25"/><line x1="272" x2="272" y1="0" y2="177.992" fill="#000" stroke="#3C3C3C" stroke-width="1" opacity=".25"/></g><g><line x1="0" x2="272" y1="177.992" y2="177.992" fill="#000" stroke="#3C3C3C" stroke-width="1" opacity=".25"/><line x1="0" x2="272" y1="163.159" y2="163.159" fill="#000" stroke="#3C3C3C" stroke-width="1" opacity=".25"/><line x1="0" x2="272" y1="148.327" y2="148.327" fill="#000" stroke="#3C3C3C" stroke-width="1" opacity=".25"/><line x1="0" x2="272" y1="133.494" y2="133.494" fill="#000" stroke="#3C3C3C" stroke-width="1" opacity=".25"/><line x1="0" x2="272" y1="118.661" y2="118.661" fill="#000" stroke="#3C3C3C" stroke-width="1" opacity=".25"/><line x1="0" x2="272" y1="103.829" y2="103.829" fill="#000" stroke="#3C3C3C" stroke-width="1" opacity=".25"/><line x1="0" x2="272" y1="88.996" y2="88.996" fill="#000" stroke="#3C3C3C" stroke-width="1" opacity=".25"/><line x1="0" x2="272" y1="74.163" y2="74.163" fill="#000" stroke="#3C3C3C" stroke-width="1" opacity=".25"/><line x1="0" x2="272" y1="59.331" y2="59.331" fill="#000" stroke="#3C3C3C" stroke-width="1" opacity=".25"/><line x1="0" x2="272" y1="44.498" y2="44.498" fill="#000" stroke="#3C3C3C" stroke-width="1" opacity=".25"/><line x1="0" x2="272" y1="29.665" y2="29.665" fill="#000" stroke="#3C3C3C" stroke-width="1" opacity=".25"/><line x1="0" x2="272" y1="14.833" y2="14.833" fill="#000" stroke="#3C3C3C" stroke-width="1" opacity=".25"/><line x1="0" x2="272" y1="0" y2="0" fill="#000" stroke="#3C3C3C" stroke-width="1" opacity=".25"/></g></g></g><g><g><line x1="0" x2="272" y1="163.159" y2="163.159" fill="#000" stroke="#999" stroke-width="1.5"/></g></g><g><g><line x1="0" x2="0" y1="0" y2="177.992" fill="#000" stroke="#999" stroke-width="1.5"/></g></g><g><g><g><g><g><path fill="none" stroke="#07B" stroke-width="2" d="M12.300444444444445,135.43987016216914L25.084444444444443,108.9110774135689L37.79288888888889,89.47803484644696L50.516444444444446,76.43342470155599L63.40622222222222,72.96467061224357L76.38666666666667,70.14022464136669L89.33688888888888,63.838536817205906L115.34311111111111,49.875993324132025L128.06666666666666,38.68302416141589L140.98666666666665,32.03987341210515L153.8008888888889,28.07978446865718L166.67555555555555,25.712946096730008L192.80266666666665,23.413845897054756L205.6622222222222,22.036309066449206L218.47644444444444,21.21047817002102L231.27555555555557,19.833829537301256L244.12,19.008088955082854"/></g></g></g></g><g opacity=".2"><g><g><g><path fill="none" stroke="#07B" stroke-width="2" d="M12.300444444444445,135.43987016216914L25.084444444444443,92.99380176440876L37.79288888888889,70.8223139820099L50.516444444444446,61.092963171164214L63.40622222222222,68.43586527323724L76.38666666666667,66.23299906309447L89.33688888888888,54.82702240165075L115.34311111111111,29.518470870812735L128.06666666666666,22.17556876873971L140.98666666666665,22.17556876873971L153.8008888888889,22.17556876873971L166.67555555555555,22.17556876873971L192.80266666666665,19.97270255859695L205.6622222222222,19.97270255859695L218.47644444444444,19.97270255859695L231.27555555555557,17.769827507495904L244.12,17.769827507495904"/></g></g></g></g></g></g><g clip-path="url(#clip_1)" transform="translate(58, 177)"><clipPath id="clip_1"><rect width="271" height="21"/></clipPath><g><g><line x1="0" x2="0" y1="0" y2="5" fill="#000" stroke="#CCC" stroke-width="1" visibility="inherit"/><line x1="30.222" x2="30.222" y1="0" y2="5" fill="#000" stroke="#CCC" stroke-width="1" visibility="inherit"/><line x1="60.444" x2="60.444" y1="0" y2="5" fill="#000" stroke="#CCC" stroke-width="1" visibility="inherit"/><line x1="90.667" x2="90.667" y1="0" y2="5" fill="#000" stroke="#CCC" stroke-width="1" visibility="inherit"/><line x1="120.889" x2="120.889" y1="0" y2="5" fill="#000" stroke="#CCC" stroke-width="1" visibility="inherit"/><line x1="151.111" x2="151.111" y1="0" y2="5" fill="#000" stroke="#CCC" stroke-width="1" visibility="inherit"/><line x1="181.333" x2="181.333" y1="0" y2="5" fill="#000" stroke="#CCC" stroke-width="1" visibility="inherit"/><line x1="211.556" x2="211.556" y1="0" y2="5" fill="#000" stroke="#CCC" stroke-width="1" visibility="inherit"/><line x1="241.778" x2="241.778" y1="0" y2="5" fill="#000" stroke="#CCC" stroke-width="1" visibility="inherit"/><line x1="272" x2="272" y1="0" y2="5" fill="#000" stroke="#CCC" stroke-width="1" visibility="inherit"/></g><g><text x="0" y="0" fill="#32313F" stroke="none" stroke-width="1" dx="0em" dy=".95em" font-family="&quot;Helvetica Neue&quot;, sans-serif" font-size="12" font-weight="200" text-anchor="middle" transform="translate(0, 8)" visibility="hidden">0</text><text x="30.222" y="0" fill="#32313F" stroke="none" stroke-width="1" dx="0em" dy=".95em" font-family="&quot;Helvetica Neue&quot;, sans-serif" font-size="12" font-weight="200" text-anchor="middle" transform="translate(0, 8)" visibility="inherit">2k</text><text x="60.444" y="0" fill="#32313F" stroke="none" stroke-width="1" dx="0em" dy=".95em" font-family="&quot;Helvetica Neue&quot;, sans-serif" font-size="12" font-weight="200" text-anchor="middle" transform="translate(0, 8)" visibility="inherit">4k</text><text x="90.667" y="0" fill="#32313F" stroke="none" stroke-width="1" dx="0em" dy=".95em" font-family="&quot;Helvetica Neue&quot;, sans-serif" font-size="12" font-weight="200" text-anchor="middle" transform="translate(0, 8)" visibility="inherit">6k</text><text x="120.889" y="0" fill="#32313F" stroke="none" stroke-width="1" dx="0em" dy=".95em" font-family="&quot;Helvetica Neue&quot;, sans-serif" font-size="12" font-weight="200" text-anchor="middle" transform="translate(0, 8)" visibility="inherit">8k</text><text x="151.111" y="0" fill="#32313F" stroke="none" stroke-width="1" dx="0em" dy=".95em" font-family="&quot;Helvetica Neue&quot;, sans-serif" font-size="12" font-weight="200" text-anchor="middle" transform="translate(0, 8)" visibility="inherit">10k</text><text x="181.333" y="0" fill="#32313F" stroke="none" stroke-width="1" dx="0em" dy=".95em" font-family="&quot;Helvetica Neue&quot;, sans-serif" font-size="12" font-weight="200" text-anchor="middle" transform="translate(0, 8)" visibility="inherit">12k</text><text x="211.556" y="0" fill="#32313F" stroke="none" stroke-width="1" dx="0em" dy=".95em" font-family="&quot;Helvetica Neue&quot;, sans-serif" font-size="12" font-weight="200" text-anchor="middle" transform="translate(0, 8)" visibility="inherit">14k</text><text x="241.778" y="0" fill="#32313F" stroke="none" stroke-width="1" dx="0em" dy=".95em" font-family="&quot;Helvetica Neue&quot;, sans-serif" font-size="12" font-weight="200" text-anchor="middle" transform="translate(0, 8)" visibility="inherit">16k</text><text x="272" y="0" fill="#32313F" stroke="none" stroke-width="1" dx="0em" dy=".95em" font-family="&quot;Helvetica Neue&quot;, sans-serif" font-size="12" font-weight="200" text-anchor="middle" transform="translate(0, 8)" visibility="hidden">18k</text></g><line x1="0" x2="272" y1="0" y2="0" fill="#000" stroke="#CCC" stroke-width="1"/></g></g></g></g></svg>