<svg xmlns="http://www.w3.org/2000/svg" viewBox="0 0 330 199.992"><g><g><g><g><g><line x1="58" x2="53" y1="177.992" y2="177.992" fill="#000" stroke="#CCC" stroke-width="1" visibility="inherit"/><line x1="58" x2="53" y1="164.3" y2="164.3" fill="#000" stroke="#CCC" stroke-width="1" visibility="inherit"/><line x1="58" x2="53" y1="150.609" y2="150.609" fill="#000" stroke="#CCC" stroke-width="1" visibility="inherit"/><line x1="58" x2="53" y1="136.917" y2="136.917" fill="#000" stroke="#CCC" stroke-width="1" visibility="inherit"/><line x1="58" x2="53" y1="123.225" y2="123.225" fill="#000" stroke="#CCC" stroke-width="1" visibility="inherit"/><line x1="58" x2="53" y1="109.534" y2="109.534" fill="#000" stroke="#CCC" stroke-width="1" visibility="inherit"/><line x1="58" x2="53" y1="95.842" y2="95.842" fill="#000" stroke="#CCC" stroke-width="1" visibility="inherit"/><line x1="58" x2="53" y1="82.15" y2="82.15" fill="#000" stroke="#CCC" stroke-width="1" visibility="inherit"/><line x1="58" x2="53" y1="68.458" y2="68.458" fill="#000" stroke="#CCC" stroke-width="1" visibility="inherit"/><line x1="58" x2="53" y1="54.767" y2="54.767" fill="#000" stroke="#CCC" stroke-width="1" visibility="inherit"/><line x1="58" x2="53" y1="41.075" y2="41.075" fill="#000" stroke="#CCC" stroke-width="1" visibility="inherit"/><line x1="58" x2="53" y1="27.383" y2="27.383" fill="#000" stroke="#CCC" stroke-width="1" visibility="inherit"/><line x1="58" x2="53" y1="13.692" y2="13.692" fill="#000" stroke="#CCC" stroke-width="1" visibility="inherit"/><line x1="58" x2="53" y1="0" y2="0" fill="#000" stroke="#CCC" stroke-width="1" visibility="inherit"/></g><g><text x="0" y="177.992" fill="#32313F" stroke="none" stroke-width="1" dx="0em" dy=".3em" font-family="&quot;Helvetica Neue&quot;, sans-serif" font-size="12" font-weight="200" text-anchor="end" transform="translate(48, 0)" visibility="hidden">-0.1</text><text x="0" y="164.3" fill="#32313F" stroke="none" stroke-width="1" dx="0em" dy=".3em" font-family="&quot;Helvetica Neue&quot;, sans-serif" font-size="12" font-weight="200" text-anchor="end" transform="translate(48, 0)" visibility="inherit">0</text><text x="0" y="150.609" fill="#32313F" stroke="none" stroke-width="1" dx="0em" dy=".3em" font-family="&quot;Helvetica Neue&quot;, sans-serif" font-size="12" font-weight="200" text-anchor="end" transform="translate(48, 0)" visibility="hidden">0.1</text><text x="0" y="136.917" fill="#32313F" stroke="none" stroke-width="1" dx="0em" dy=".3em" font-family="&quot;Helvetica Neue&quot;, sans-serif" font-size="12" font-weight="200" text-anchor="end" transform="translate(48, 0)" visibility="inherit">0.2</text><text x="0" y="123.225" fill="#32313F" stroke="none" stroke-width="1" dx="0em" dy=".3em" font-family="&quot;Helvetica Neue&quot;, sans-serif" font-size="12" font-weight="200" text-anchor="end" transform="translate(48, 0)" visibility="hidden">0.3</text><text x="0" y="109.534" fill="#32313F" stroke="none" stroke-width="1" dx="0em" dy=".3em" font-family="&quot;Helvetica Neue&quot;, sans-serif" font-size="12" font-weight="200" text-anchor="end" transform="translate(48, 0)" visibility="inherit">0.4</text><text x="0" y="95.842" fill="#32313F" stroke="none" stroke-width="1" dx="0em" dy=".3em" font-family="&quot;Helvetica Neue&quot;, sans-serif" font-size="12" font-weight="200" text-anchor="end" transform="translate(48, 0)" visibility="hidden">0.5</text><text x="0" y="82.15" fill="#32313F" stroke="none" stroke-width="1" dx="0em" dy=".3em" font-family="&quot;Helvetica Neue&quot;, sans-serif" font-size="12" font-weight="200" text-anchor="end" transform="translate(48, 0)" visibility="inherit">0.6</text><text x="0" y="68.458" fill="#32313F" stroke="none" stroke-width="1" dx="0em" dy=".3em" font-family="&quot;Helvetica Neue&quot;, sans-serif" font-size="12" font-weight="200" text-anchor="end" transform="translate(48, 0)" visibility="hidden">0.7</text><text x="0" y="54.767" fill="#32313F" stroke="none" stroke-width="1" dx="0em" dy=".3em" font-family="&quot;Helvetica Neue&quot;, sans-serif" font-size="12" font-weight="200" text-anchor="end" transform="translate(48, 0)" visibility="inherit">0.8</text><text x="0" y="41.075" fill="#32313F" stroke="none" stroke-width="1" dx="0em" dy=".3em" font-family="&quot;Helvetica Neue&quot;, sans-serif" font-size="12" font-weight="200" text-anchor="end" transform="translate(48, 0)" visibility="hidden">0.9</text><text x="0" y="27.383" fill="#32313F" stroke="none" stroke-width="1" dx="0em" dy=".3em" font-family="&quot;Helvetica Neue&quot;, sans-serif" font-size="12" font-weight="200" text-anchor="end" transform="translate(48, 0)" visibility="inherit">1</text><text x="0" y="13.692" fill="#32313F" stroke="none" stroke-width="1" dx="0em" dy=".3em" font-family="&quot;Helvetica Neue&quot;, sans-serif" font-size="12" font-weight="200" text-anchor="end" transform="translate(48, 0)" visibility="hidden">1.1</text><text x="0" y="0" fill="#32313F" stroke="none" stroke-width="1" dx="0em" dy=".3em" font-family="&quot;Helvetica Neue&quot;, sans-serif" font-size="12" font-weight="200" text-anchor="end" transform="translate(48, 0)" visibility="hidden">1.2</text></g><line x1="58" x2="58" y1="0" y2="177.992" fill="#000" stroke="#CCC" stroke-width="1"/></g></g><g clip-path="url(#clip_0)" transform="translate(58, 0)"><clipPath id="clip_0"><rect width="271" height="177"/></clipPath><g><g><g><line x1="0" x2="0" y1="0" y2="177.992" fill="#000" stroke="#3C3C3C" stroke-width="1" opacity=".25"/><line x1="30.222" x2="30.222" y1="0" y2="177.992" fill="#000" stroke="#3C3C3C" stroke-width="1" opacity=".25"/><line x1="60.444" x2="60.444" y1="0" y2="177.992" fill="#000" stroke="#3C3C3C" stroke-width="1" opacity=".25"/><line x1="90.667" x2="90.667" y1="0" y2="177.992" fill="#000" stroke="#3C3C3C" stroke-width="1" opacity=".25"/><line x1="120.889" x2="120.889" y1="0" y2="177.992" fill="#000" stroke="#3C3C3C" stroke-width="1" opacity=".25"/><line x1="151.111" x2="151.111" y1="0" y2="177.992" fill="#000" stroke="#3C3C3C" stroke-width="1" opacity=".25"/><line x1="181.333" x2="181.333" y1="0" y2="177.992" fill="#000" stroke="#3C3C3C" stroke-width="1" opacity=".25"/><line x1="211.556" x2="211.556" y1="0" y2="177.992" fill="#000" stroke="#3C3C3C" stroke-width="1" opacity=".25"/><line x1="241.778" x2="241.778" y1="0" y2="177.992" fill="#000" stroke="#3C3C3C" stroke-width="1" opacity=".25"/><line x1="272" x2="272" y1="0" y2="177.992" fill="#000" stroke="#3C3C3C" stroke-width="1" opacity=".25"/></g><g><line x1="0" x2="272" y1="177.992" y2="177.992" fill="#000" stroke="#3C3C3C" stroke-width="1" opacity=".25"/><line x1="0" x2="272" y1="164.3" y2="164.3" fill="#000" stroke="#3C3C3C" stroke-width="1" opacity=".25"/><line x1="0" x2="272" y1="150.609" y2="150.609" fill="#000" stroke="#3C3C3C" stroke-width="1" opacity=".25"/><line x1="0" x2="272" y1="136.917" y2="136.917" fill="#000" stroke="#3C3C3C" stroke-width="1" opacity=".25"/><line x1="0" x2="272" y1="123.225" y2="123.225" fill="#000" stroke="#3C3C3C" stroke-width="1" opacity=".25"/><line x1="0" x2="272" y1="109.534" y2="109.534" fill="#000" stroke="#3C3C3C" stroke-width="1" opacity=".25"/><line x1="0" x2="272" y1="95.842" y2="95.842" fill="#000" stroke="#3C3C3C" stroke-width="1" opacity=".25"/><line x1="0" x2="272" y1="82.15" y2="82.15" fill="#000" stroke="#3C3C3C" stroke-width="1" opacity=".25"/><line x1="0" x2="272" y1="68.458" y2="68.458" fill="#000" stroke="#3C3C3C" stroke-width="1" opacity=".25"/><line x1="0" x2="272" y1="54.767" y2="54.767" fill="#000" stroke="#3C3C3C" stroke-width="1" opacity=".25"/><line x1="0" x2="272" y1="41.075" y2="41.075" fill="#000" stroke="#3C3C3C" stroke-width="1" opacity=".25"/><line x1="0" x2="272" y1="27.383" y2="27.383" fill="#000" stroke="#3C3C3C" stroke-width="1" opacity=".25"/><line x1="0" x2="272" y1="13.692" y2="13.692" fill="#000" stroke="#3C3C3C" stroke-width="1" opacity=".25"/><line x1="0" x2="272" y1="0" y2="0" fill="#000" stroke="#3C3C3C" stroke-width="1" opacity=".25"/></g></g></g><g><g><line x1="0" x2="272" y1="164.3" y2="164.3" fill="#000" stroke="#999" stroke-width="1.5"/></g></g><g><g><line x1="0" x2="0" y1="0" y2="177.992" fill="#000" stroke="#999" stroke-width="1.5"/></g></g><g><g><g><g><g><path fill="none" stroke="#07B" stroke-width="2" d="M12.300444444444445,147.35514389466323L25.084444444444443,120.60599132361435L37.79288888888889,101.50439688518303L50.516444444444446,90.27379400269712L63.40622222222222,86.48844178453658L76.38666666666667,83.30312424617713L89.33688888888888,76.31561778550898L115.34311111111111,61.92344201351399L128.06666666666666,50.7055943876491L140.98666666666665,44.04767799584397L153.8008888888889,40.07878701556257L166.67555555555555,37.70668790357985L192.80266666666665,35.472307738988405L205.6622222222222,34.1335487885373L218.47644444444444,33.33096516275768L231.27555555555557,32.03605779282125L244.12,31.259347207304756"/></g></g></g></g><g opacity=".2"><g><g><g><path fill="none" stroke="#07B" stroke-width="2" d="M12.300444444444445,147.35514389466323L25.084444444444443,104.55649978098502L37.79288888888889,83.16686622428894L50.516444444444446,77.06660501289367L63.40622222222222,81.54628592850612L76.38666666666667,78.89668337631225L89.33688888888888,66.32337174665012L115.34311111111111,40.9395115730579L128.06666666666666,34.16144809422124L140.98666666666665,34.16144809422124L153.8008888888889,34.16144809422124L166.67555555555555,34.16144809422124L192.80266666666665,32.12803313101253L205.6622222222222,32.12803313101253L218.47644444444444,32.12803313101253L231.27555555555557,30.094610006919254L244.12,30.094610006919254"/></g></g></g></g></g></g><g clip-path="url(#clip_1)" transform="translate(58, 177)"><clipPath id="clip_1"><rect width="271" height="21"/></clipPath><g><g><line x1="0" x2="0" y1="0" y2="5" fill="#000" stroke="#CCC" stroke-width="1" visibility="inherit"/><line x1="30.222" x2="30.222" y1="0" y2="5" fill="#000" stroke="#CCC" stroke-width="1" visibility="inherit"/><line x1="60.444" x2="60.444" y1="0" y2="5" fill="#000" stroke="#CCC" stroke-width="1" visibility="inherit"/><line x1="90.667" x2="90.667" y1="0" y2="5" fill="#000" stroke="#CCC" stroke-width="1" visibility="inherit"/><line x1="120.889" x2="120.889" y1="0" y2="5" fill="#000" stroke="#CCC" stroke-width="1" visibility="inherit"/><line x1="151.111" x2="151.111" y1="0" y2="5" fill="#000" stroke="#CCC" stroke-width="1" visibility="inherit"/><line x1="181.333" x2="181.333" y1="0" y2="5" fill="#000" stroke="#CCC" stroke-width="1" visibility="inherit"/><line x1="211.556" x2="211.556" y1="0" y2="5" fill="#000" stroke="#CCC" stroke-width="1" visibility="inherit"/><line x1="241.778" x2="241.778" y1="0" y2="5" fill="#000" stroke="#CCC" stroke-width="1" visibility="inherit"/><line x1="272" x2="272" y1="0" y2="5" fill="#000" stroke="#CCC" stroke-width="1" visibility="inherit"/></g><g><text x="0" y="0" fill="#32313F" stroke="none" stroke-width="1" dx="0em" dy=".95em" font-family="&quot;Helvetica Neue&quot;, sans-serif" font-size="12" font-weight="200" text-anchor="middle" transform="translate(0, 8)" visibility="hidden">0</text><text x="30.222" y="0" fill="#32313F" stroke="none" stroke-width="1" dx="0em" dy=".95em" font-family="&quot;Helvetica Neue&quot;, sans-serif" font-size="12" font-weight="200" text-anchor="middle" transform="translate(0, 8)" visibility="inherit">2k</text><text x="60.444" y="0" fill="#32313F" stroke="none" stroke-width="1" dx="0em" dy=".95em" font-family="&quot;Helvetica Neue&quot;, sans-serif" font-size="12" font-weight="200" text-anchor="middle" transform="translate(0, 8)" visibility="inherit">4k</text><text x="90.667" y="0" fill="#32313F" stroke="none" stroke-width="1" dx="0em" dy=".95em" font-family="&quot;Helvetica Neue&quot;, sans-serif" font-size="12" font-weight="200" text-anchor="middle" transform="translate(0, 8)" visibility="inherit">6k</text><text x="120.889" y="0" fill="#32313F" stroke="none" stroke-width="1" dx="0em" dy=".95em" font-family="&quot;Helvetica Neue&quot;, sans-serif" font-size="12" font-weight="200" text-anchor="middle" transform="translate(0, 8)" visibility="inherit">8k</text><text x="151.111" y="0" fill="#32313F" stroke="none" stroke-width="1" dx="0em" dy=".95em" font-family="&quot;Helvetica Neue&quot;, sans-serif" font-size="12" font-weight="200" text-anchor="middle" transform="translate(0, 8)" visibility="inherit">10k</text><text x="181.333" y="0" fill="#32313F" stroke="none" stroke-width="1" dx="0em" dy=".95em" font-family="&quot;Helvetica Neue&quot;, sans-serif" font-size="12" font-weight="200" text-anchor="middle" transform="translate(0, 8)" visibility="inherit">12k</text><text x="211.556" y="0" fill="#32313F" stroke="none" stroke-width="1" dx="0em" dy=".95em" font-family="&quot;Helvetica Neue&quot;, sans-serif" font-size="12" font-weight="200" text-anchor="middle" transform="translate(0, 8)" visibility="inherit">14k</text><text x="241.778" y="0" fill="#32313F" stroke="none" stroke-width="1" dx="0em" dy=".95em" font-family="&quot;Helvetica Neue&quot;, sans-serif" font-size="12" font-weight="200" text-anchor="middle" transform="translate(0, 8)" visibility="inherit">16k</text><text x="272" y="0" fill="#32313F" stroke="none" stroke-width="1" dx="0em" dy=".95em" font-family="&quot;Helvetica Neue&quot;, sans-serif" font-size="12" font-weight="200" text-anchor="middle" transform="translate(0, 8)" visibility="hidden">18k</text></g><line x1="0" x2="272" y1="0" y2="0" fill="#000" stroke="#CCC" stroke-width="1"/></g></g></g></g></svg>