<svg xmlns="http://www.w3.org/2000/svg" viewBox="0 0 330 199.992"><g><g><g><g><g><line x1="58" x2="53" y1="177.992" y2="177.992" fill="#000" stroke="#CCC" stroke-width="1" visibility="inherit"/><line x1="58" x2="53" y1="161.811" y2="161.811" fill="#000" stroke="#CCC" stroke-width="1" visibility="inherit"/><line x1="58" x2="53" y1="145.63" y2="145.63" fill="#000" stroke="#CCC" stroke-width="1" visibility="inherit"/><line x1="58" x2="53" y1="129.449" y2="129.449" fill="#000" stroke="#CCC" stroke-width="1" visibility="inherit"/><line x1="58" x2="53" y1="113.268" y2="113.268" fill="#000" stroke="#CCC" stroke-width="1" visibility="inherit"/><line x1="58" x2="53" y1="97.087" y2="97.087" fill="#000" stroke="#CCC" stroke-width="1" visibility="inherit"/><line x1="58" x2="53" y1="80.905" y2="80.905" fill="#000" stroke="#CCC" stroke-width="1" visibility="inherit"/><line x1="58" x2="53" y1="64.724" y2="64.724" fill="#000" stroke="#CCC" stroke-width="1" visibility="inherit"/><line x1="58" x2="53" y1="48.543" y2="48.543" fill="#000" stroke="#CCC" stroke-width="1" visibility="inherit"/><line x1="58" x2="53" y1="32.362" y2="32.362" fill="#000" stroke="#CCC" stroke-width="1" visibility="inherit"/><line x1="58" x2="53" y1="16.181" y2="16.181" fill="#000" stroke="#CCC" stroke-width="1" visibility="inherit"/><line x1="58" x2="53" y1="0" y2="0" fill="#000" stroke="#CCC" stroke-width="1" visibility="inherit"/></g><g><text x="0" y="177.992" fill="#32313F" stroke="none" stroke-width="1" dx="0em" dy=".3em" font-family="&quot;Helvetica Neue&quot;, sans-serif" font-size="12" font-weight="200" text-anchor="end" transform="translate(48, 0)" visibility="hidden">0.18</text><text x="0" y="161.811" fill="#32313F" stroke="none" stroke-width="1" dx="0em" dy=".3em" font-family="&quot;Helvetica Neue&quot;, sans-serif" font-size="12" font-weight="200" text-anchor="end" transform="translate(48, 0)" visibility="inherit">0.2</text><text x="0" y="145.63" fill="#32313F" stroke="none" stroke-width="1" dx="0em" dy=".3em" font-family="&quot;Helvetica Neue&quot;, sans-serif" font-size="12" font-weight="200" text-anchor="end" transform="translate(48, 0)" visibility="hidden">0.22</text><text x="0" y="129.449" fill="#32313F" stroke="none" stroke-width="1" dx="0em" dy=".3em" font-family="&quot;Helvetica Neue&quot;, sans-serif" font-size="12" font-weight="200" text-anchor="end" transform="translate(48, 0)" visibility="inherit">0.24</text><text x="0" y="113.268" fill="#32313F" stroke="none" stroke-width="1" dx="0em" dy=".3em" font-family="&quot;Helvetica Neue&quot;, sans-serif" font-size="12" font-weight="200" text-anchor="end" transform="translate(48, 0)" visibility="hidden">0.26</text><text x="0" y="97.087" fill="#32313F" stroke="none" stroke-width="1" dx="0em" dy=".3em" font-family="&quot;Helvetica Neue&quot;, sans-serif" font-size="12" font-weight="200" text-anchor="end" transform="translate(48, 0)" visibility="inherit">0.28</text><text x="0" y="80.905" fill="#32313F" stroke="none" stroke-width="1" dx="0em" dy=".3em" font-family="&quot;Helvetica Neue&quot;, sans-serif" font-size="12" font-weight="200" text-anchor="end" transform="translate(48, 0)" visibility="hidden">0.3</text><text x="0" y="64.724" fill="#32313F" stroke="none" stroke-width="1" dx="0em" dy=".3em" font-family="&quot;Helvetica Neue&quot;, sans-serif" font-size="12" font-weight="200" text-anchor="end" transform="translate(48, 0)" visibility="inherit">0.32</text><text x="0" y="48.543" fill="#32313F" stroke="none" stroke-width="1" dx="0em" dy=".3em" font-family="&quot;Helvetica Neue&quot;, sans-serif" font-size="12" font-weight="200" text-anchor="end" transform="translate(48, 0)" visibility="hidden">0.34</text><text x="0" y="32.362" fill="#32313F" stroke="none" stroke-width="1" dx="0em" dy=".3em" font-family="&quot;Helvetica Neue&quot;, sans-serif" font-size="12" font-weight="200" text-anchor="end" transform="translate(48, 0)" visibility="inherit">0.36</text><text x="0" y="16.181" fill="#32313F" stroke="none" stroke-width="1" dx="0em" dy=".3em" font-family="&quot;Helvetica Neue&quot;, sans-serif" font-size="12" font-weight="200" text-anchor="end" transform="translate(48, 0)" visibility="hidden">0.38</text><text x="0" y="0" fill="#32313F" stroke="none" stroke-width="1" dx="0em" dy=".3em" font-family="&quot;Helvetica Neue&quot;, sans-serif" font-size="12" font-weight="200" text-anchor="end" transform="translate(48, 0)" visibility="hidden">0.4</text></g><line x1="58" x2="58" y1="0" y2="177.992" fill="#000" stroke="#CCC" stroke-width="1"/></g></g><g clip-path="url(#clip_0)" transform="translate(58, 0)"><clipPath id="clip_0"><rect width="271" height="177"/></clipPath><g><g><g><line x1="0" x2="0" y1="0" y2="177.992" fill="#000" stroke="#3C3C3C" stroke-width="1" opacity=".25"/><line x1="30.222" x2="30.222" y1="0" y2="177.992" fill="#000" stroke="#3C3C3C" stroke-width="1" opacity=".25"/><line x1="60.444" x2="60.444" y1="0" y2="177.992" fill="#000" stroke="#3C3C3C" stroke-width="1" opacity=".25"/><line x1="90.667" x2="90.667" y1="0" y2="177.992" fill="#000" stroke="#3C3C3C" stroke-width="1" opacity=".25"/><line x1="120.889" x2="120.889" y1="0" y2="177.992" fill="#000" stroke="#3C3C3C" stroke-width="1" opacity=".25"/><line x1="151.111" x2="151.111" y1="0" y2="177.992" fill="#000" stroke="#3C3C3C" stroke-width="1" opacity=".25"/><line x1="181.333" x2="181.333" y1="0" y2="177.992" fill="#000" stroke="#3C3C3C" stroke-width="1" opacity=".25"/><line x1="211.556" x2="211.556" y1="0" y2="177.992" fill="#000" stroke="#3C3C3C" stroke-width="1" opacity=".25"/><line x1="241.778" x2="241.778" y1="0" y2="177.992" fill="#000" stroke="#3C3C3C" stroke-width="1" opacity=".25"/><line x1="272" x2="272" y1="0" y2="177.992" fill="#000" stroke="#3C3C3C" stroke-width="1" opacity=".25"/></g><g><line x1="0" x2="272" y1="177.992" y2="177.992" fill="#000" stroke="#3C3C3C" stroke-width="1" opacity=".25"/><line x1="0" x2="272" y1="161.811" y2="161.811" fill="#000" stroke="#3C3C3C" stroke-width="1" opacity=".25"/><line x1="0" x2="272" y1="145.63" y2="145.63" fill="#000" stroke="#3C3C3C" stroke-width="1" opacity=".25"/><line x1="0" x2="272" y1="129.449" y2="129.449" fill="#000" stroke="#3C3C3C" stroke-width="1" opacity=".25"/><line x1="0" x2="272" y1="113.268" y2="113.268" fill="#000" stroke="#3C3C3C" stroke-width="1" opacity=".25"/><line x1="0" x2="272" y1="97.087" y2="97.087" fill="#000" stroke="#3C3C3C" stroke-width="1" opacity=".25"/><line x1="0" x2="272" y1="80.905" y2="80.905" fill="#000" stroke="#3C3C3C" stroke-width="1" opacity=".25"/><line x1="0" x2="272" y1="64.724" y2="64.724" fill="#000" stroke="#3C3C3C" stroke-width="1" opacity=".25"/><line x1="0" x2="272" y1="48.543" y2="48.543" fill="#000" stroke="#3C3C3C" stroke-width="1" opacity=".25"/><line x1="0" x2="272" y1="32.362" y2="32.362" fill="#000" stroke="#3C3C3C" stroke-width="1" opacity=".25"/><line x1="0" x2="272" y1="16.181" y2="16.181" fill="#000" stroke="#3C3C3C" stroke-width="1" opacity=".25"/><line x1="0" x2="272" y1="0" y2="0" fill="#000" stroke="#3C3C3C" stroke-width="1" opacity=".25"/></g></g></g><g><g><line x1="0" x2="272" y1="323.622" y2="323.622" fill="#000" stroke="#999" stroke-width="1.5"/></g></g><g><g><line x1="0" x2="0" y1="0" y2="177.992" fill="#000" stroke="#999" stroke-width="1.5"/></g></g><g><g><g><g><g><path fill="none" stroke="#07B" stroke-width="2" d="M12.300444444444445,25.533494443459944L25.084444444444443,40.16893733436416L37.79288888888889,50.830001243010045L50.516444444444446,60.456011263884335L63.40622222222222,63.44756644446892L76.38666666666667,78.51361483575849L89.33688888888888,87.63513047130556L115.34311111111111,97.67064636853515L128.06666666666666,105.67820360494954L140.98666666666665,110.89857592190937L153.8008888888889,117.05102632325674L166.67555555555555,126.29588232588387L192.80266666666665,130.16264500071028L205.6622222222222,136.32738872331637L218.47644444444444,138.86115865867112L231.27555555555557,142.57362368373197L244.12,140.53213585432826"/></g></g></g></g><g opacity=".2"><g><g><g><path fill="none" stroke="#07B" stroke-width="2" d="M12.300444444444445,25.533494443459944L25.084444444444443,48.95020306890663L37.79288888888889,61.064622595310226L50.516444444444446,71.77619904843245L63.40622222222222,67.35334088824013L76.38666666666667,99.35538353833286L89.33688888888888,100.67904377438805L115.34311111111111,112.30252488764849L128.06666666666666,117.48779514074326L140.98666666666665,118.65022040952334L153.8008888888889,126.22389965295791L166.67555555555555,140.11285623171113L192.80266666666665,135.95016336191782L205.6622222222222,145.5624269325083L218.47644444444444,142.6588352102583L231.27555555555557,148.1397029033574L244.12,137.47076799945398"/></g></g></g></g></g></g><g clip-path="url(#clip_1)" transform="translate(58, 177)"><clipPath id="clip_1"><rect width="271" height="21"/></clipPath><g><g><line x1="0" x2="0" y1="0" y2="5" fill="#000" stroke="#CCC" stroke-width="1" visibility="inherit"/><line x1="30.222" x2="30.222" y1="0" y2="5" fill="#000" stroke="#CCC" stroke-width="1" visibility="inherit"/><line x1="60.444" x2="60.444" y1="0" y2="5" fill="#000" stroke="#CCC" stroke-width="1" visibility="inherit"/><line x1="90.667" x2="90.667" y1="0" y2="5" fill="#000" stroke="#CCC" stroke-width="1" visibility="inherit"/><line x1="120.889" x2="120.889" y1="0" y2="5" fill="#000" stroke="#CCC" stroke-width="1" visibility="inherit"/><line x1="151.111" x2="151.111" y1="0" y2="5" fill="#000" stroke="#CCC" stroke-width="1" visibility="inherit"/><line x1="181.333" x2="181.333" y1="0" y2="5" fill="#000" stroke="#CCC" stroke-width="1" visibility="inherit"/><line x1="211.556" x2="211.556" y1="0" y2="5" fill="#000" stroke="#CCC" stroke-width="1" visibility="inherit"/><line x1="241.778" x2="241.778" y1="0" y2="5" fill="#000" stroke="#CCC" stroke-width="1" visibility="inherit"/><line x1="272" x2="272" y1="0" y2="5" fill="#000" stroke="#CCC" stroke-width="1" visibility="inherit"/></g><g><text x="0" y="0" fill="#32313F" stroke="none" stroke-width="1" dx="0em" dy=".95em" font-family="&quot;Helvetica Neue&quot;, sans-serif" font-size="12" font-weight="200" text-anchor="middle" transform="translate(0, 8)" visibility="hidden">0</text><text x="30.222" y="0" fill="#32313F" stroke="none" stroke-width="1" dx="0em" dy=".95em" font-family="&quot;Helvetica Neue&quot;, sans-serif" font-size="12" font-weight="200" text-anchor="middle" transform="translate(0, 8)" visibility="inherit">2k</text><text x="60.444" y="0" fill="#32313F" stroke="none" stroke-width="1" dx="0em" dy=".95em" font-family="&quot;Helvetica Neue&quot;, sans-serif" font-size="12" font-weight="200" text-anchor="middle" transform="translate(0, 8)" visibility="inherit">4k</text><text x="90.667" y="0" fill="#32313F" stroke="none" stroke-width="1" dx="0em" dy=".95em" font-family="&quot;Helvetica Neue&quot;, sans-serif" font-size="12" font-weight="200" text-anchor="middle" transform="translate(0, 8)" visibility="inherit">6k</text><text x="120.889" y="0" fill="#32313F" stroke="none" stroke-width="1" dx="0em" dy=".95em" font-family="&quot;Helvetica Neue&quot;, sans-serif" font-size="12" font-weight="200" text-anchor="middle" transform="translate(0, 8)" visibility="inherit">8k</text><text x="151.111" y="0" fill="#32313F" stroke="none" stroke-width="1" dx="0em" dy=".95em" font-family="&quot;Helvetica Neue&quot;, sans-serif" font-size="12" font-weight="200" text-anchor="middle" transform="translate(0, 8)" visibility="inherit">10k</text><text x="181.333" y="0" fill="#32313F" stroke="none" stroke-width="1" dx="0em" dy=".95em" font-family="&quot;Helvetica Neue&quot;, sans-serif" font-size="12" font-weight="200" text-anchor="middle" transform="translate(0, 8)" visibility="inherit">12k</text><text x="211.556" y="0" fill="#32313F" stroke="none" stroke-width="1" dx="0em" dy=".95em" font-family="&quot;Helvetica Neue&quot;, sans-serif" font-size="12" font-weight="200" text-anchor="middle" transform="translate(0, 8)" visibility="inherit">14k</text><text x="241.778" y="0" fill="#32313F" stroke="none" stroke-width="1" dx="0em" dy=".95em" font-family="&quot;Helvetica Neue&quot;, sans-serif" font-size="12" font-weight="200" text-anchor="middle" transform="translate(0, 8)" visibility="inherit">16k</text><text x="272" y="0" fill="#32313F" stroke="none" stroke-width="1" dx="0em" dy=".95em" font-family="&quot;Helvetica Neue&quot;, sans-serif" font-size="12" font-weight="200" text-anchor="middle" transform="translate(0, 8)" visibility="hidden">18k</text></g><line x1="0" x2="272" y1="0" y2="0" fill="#000" stroke="#CCC" stroke-width="1"/></g></g></g></g></svg>