<svg xmlns="http://www.w3.org/2000/svg" viewBox="0 0 330 200"><g><g><g><g><g><line x1="70" x2="65" y1="178" y2="178" fill="#000" stroke="#CCC" stroke-width="1" visibility="inherit"/><line x1="70" x2="65" y1="164.308" y2="164.308" fill="#000" stroke="#CCC" stroke-width="1" visibility="inherit"/><line x1="70" x2="65" y1="150.615" y2="150.615" fill="#000" stroke="#CCC" stroke-width="1" visibility="inherit"/><line x1="70" x2="65" y1="136.923" y2="136.923" fill="#000" stroke="#CCC" stroke-width="1" visibility="inherit"/><line x1="70" x2="65" y1="123.231" y2="123.231" fill="#000" stroke="#CCC" stroke-width="1" visibility="inherit"/><line x1="70" x2="65" y1="109.538" y2="109.538" fill="#000" stroke="#CCC" stroke-width="1" visibility="inherit"/><line x1="70" x2="65" y1="95.846" y2="95.846" fill="#000" stroke="#CCC" stroke-width="1" visibility="inherit"/><line x1="70" x2="65" y1="82.154" y2="82.154" fill="#000" stroke="#CCC" stroke-width="1" visibility="inherit"/><line x1="70" x2="65" y1="68.462" y2="68.462" fill="#000" stroke="#CCC" stroke-width="1" visibility="inherit"/><line x1="70" x2="65" y1="54.769" y2="54.769" fill="#000" stroke="#CCC" stroke-width="1" visibility="inherit"/><line x1="70" x2="65" y1="41.077" y2="41.077" fill="#000" stroke="#CCC" stroke-width="1" visibility="inherit"/><line x1="70" x2="65" y1="27.385" y2="27.385" fill="#000" stroke="#CCC" stroke-width="1" visibility="inherit"/><line x1="70" x2="65" y1="13.692" y2="13.692" fill="#000" stroke="#CCC" stroke-width="1" visibility="inherit"/><line x1="70" x2="65" y1="0" y2="0" fill="#000" stroke="#CCC" stroke-width="1" visibility="inherit"/></g><g><text x="0" y="178" fill="#32313F" stroke="none" stroke-width="1" dx="0em" dy=".3em" font-family="&quot;Helvetica Neue&quot;, sans-serif" font-size="12" font-weight="200" text-anchor="end" transform="translate(60, 0)" visibility="hidden">-0.05</text><text x="0" y="164.308" fill="#32313F" stroke="none" stroke-width="1" dx="0em" dy=".3em" font-family="&quot;Helvetica Neue&quot;, sans-serif" font-size="12" font-weight="200" text-anchor="end" transform="translate(60, 0)" visibility="inherit">0</text><text x="0" y="150.615" fill="#32313F" stroke="none" stroke-width="1" dx="0em" dy=".3em" font-family="&quot;Helvetica Neue&quot;, sans-serif" font-size="12" font-weight="200" text-anchor="end" transform="translate(60, 0)" visibility="hidden">0.05</text><text x="0" y="136.923" fill="#32313F" stroke="none" stroke-width="1" dx="0em" dy=".3em" font-family="&quot;Helvetica Neue&quot;, sans-serif" font-size="12" font-weight="200" text-anchor="end" transform="translate(60, 0)" visibility="inherit">0.1</text><text x="0" y="123.231" fill="#32313F" stroke="none" stroke-width="1" dx="0em" dy=".3em" font-family="&quot;Helvetica Neue&quot;, sans-serif" font-size="12" font-weight="200" text-anchor="end" transform="translate(60, 0)" visibility="hidden">0.15</text><text x="0" y="109.538" fill="#32313F" stroke="none" stroke-width="1" dx="0em" dy=".3em" font-family="&quot;Helvetica Neue&quot;, sans-serif" font-size="12" font-weight="200" text-anchor="end" transform="translate(60, 0)" visibility="inherit">0.2</text><text x="0" y="95.846" fill="#32313F" stroke="none" stroke-width="1" dx="0em" dy=".3em" font-family="&quot;Helvetica Neue&quot;, sans-serif" font-size="12" font-weight="200" text-anchor="end" transform="translate(60, 0)" visibility="hidden">0.25</text><text x="0" y="82.154" fill="#32313F" stroke="none" stroke-width="1" dx="0em" dy=".3em" font-family="&quot;Helvetica Neue&quot;, sans-serif" font-size="12" font-weight="200" text-anchor="end" transform="translate(60, 0)" visibility="inherit">0.3</text><text x="0" y="68.462" fill="#32313F" stroke="none" stroke-width="1" dx="0em" dy=".3em" font-family="&quot;Helvetica Neue&quot;, sans-serif" font-size="12" font-weight="200" text-anchor="end" transform="translate(60, 0)" visibility="hidden">0.35</text><text x="0" y="54.769" fill="#32313F" stroke="none" stroke-width="1" dx="0em" dy=".3em" font-family="&quot;Helvetica Neue&quot;, sans-serif" font-size="12" font-weight="200" text-anchor="end" transform="translate(60, 0)" visibility="inherit">0.4</text><text x="0" y="41.077" fill="#32313F" stroke="none" stroke-width="1" dx="0em" dy=".3em" font-family="&quot;Helvetica Neue&quot;, sans-serif" font-size="12" font-weight="200" text-anchor="end" transform="translate(60, 0)" visibility="hidden">0.45</text><text x="0" y="27.385" fill="#32313F" stroke="none" stroke-width="1" dx="0em" dy=".3em" font-family="&quot;Helvetica Neue&quot;, sans-serif" font-size="12" font-weight="200" text-anchor="end" transform="translate(60, 0)" visibility="inherit">0.5</text><text x="0" y="13.692" fill="#32313F" stroke="none" stroke-width="1" dx="0em" dy=".3em" font-family="&quot;Helvetica Neue&quot;, sans-serif" font-size="12" font-weight="200" text-anchor="end" transform="translate(60, 0)" visibility="hidden">0.55</text><text x="0" y="0" fill="#32313F" stroke="none" stroke-width="1" dx="0em" dy=".3em" font-family="&quot;Helvetica Neue&quot;, sans-serif" font-size="12" font-weight="200" text-anchor="end" transform="translate(60, 0)" visibility="hidden">0.6</text></g><line x1="70" x2="70" y1="0" y2="178" fill="#000" stroke="#CCC" stroke-width="1"/></g></g><g clip-path="url(#clip_0)" transform="translate(70, 0)"><clipPath id="clip_0"><rect width="260" height="177"/></clipPath><g><g><g><line x1="0" x2="0" y1="0" y2="178" fill="#000" stroke="#3C3C3C" stroke-width="1" opacity=".25"/><line x1="21.667" x2="21.667" y1="0" y2="178" fill="#000" stroke="#3C3C3C" stroke-width="1" opacity=".25"/><line x1="43.333" x2="43.333" y1="0" y2="178" fill="#000" stroke="#3C3C3C" stroke-width="1" opacity=".25"/><line x1="65" x2="65" y1="0" y2="178" fill="#000" stroke="#3C3C3C" stroke-width="1" opacity=".25"/><line x1="86.667" x2="86.667" y1="0" y2="178" fill="#000" stroke="#3C3C3C" stroke-width="1" opacity=".25"/><line x1="108.333" x2="108.333" y1="0" y2="178" fill="#000" stroke="#3C3C3C" stroke-width="1" opacity=".25"/><line x1="130" x2="130" y1="0" y2="178" fill="#000" stroke="#3C3C3C" stroke-width="1" opacity=".25"/><line x1="151.667" x2="151.667" y1="0" y2="178" fill="#000" stroke="#3C3C3C" stroke-width="1" opacity=".25"/><line x1="173.333" x2="173.333" y1="0" y2="178" fill="#000" stroke="#3C3C3C" stroke-width="1" opacity=".25"/><line x1="195" x2="195" y1="0" y2="178" fill="#000" stroke="#3C3C3C" stroke-width="1" opacity=".25"/><line x1="216.667" x2="216.667" y1="0" y2="178" fill="#000" stroke="#3C3C3C" stroke-width="1" opacity=".25"/><line x1="238.333" x2="238.333" y1="0" y2="178" fill="#000" stroke="#3C3C3C" stroke-width="1" opacity=".25"/><line x1="260" x2="260" y1="0" y2="178" fill="#000" stroke="#3C3C3C" stroke-width="1" opacity=".25"/></g><g><line x1="0" x2="260" y1="178" y2="178" fill="#000" stroke="#3C3C3C" stroke-width="1" opacity=".25"/><line x1="0" x2="260" y1="164.308" y2="164.308" fill="#000" stroke="#3C3C3C" stroke-width="1" opacity=".25"/><line x1="0" x2="260" y1="150.615" y2="150.615" fill="#000" stroke="#3C3C3C" stroke-width="1" opacity=".25"/><line x1="0" x2="260" y1="136.923" y2="136.923" fill="#000" stroke="#3C3C3C" stroke-width="1" opacity=".25"/><line x1="0" x2="260" y1="123.231" y2="123.231" fill="#000" stroke="#3C3C3C" stroke-width="1" opacity=".25"/><line x1="0" x2="260" y1="109.538" y2="109.538" fill="#000" stroke="#3C3C3C" stroke-width="1" opacity=".25"/><line x1="0" x2="260" y1="95.846" y2="95.846" fill="#000" stroke="#3C3C3C" stroke-width="1" opacity=".25"/><line x1="0" x2="260" y1="82.154" y2="82.154" fill="#000" stroke="#3C3C3C" stroke-width="1" opacity=".25"/><line x1="0" x2="260" y1="68.462" y2="68.462" fill="#000" stroke="#3C3C3C" stroke-width="1" opacity=".25"/><line x1="0" x2="260" y1="54.769" y2="54.769" fill="#000" stroke="#3C3C3C" stroke-width="1" opacity=".25"/><line x1="0" x2="260" y1="41.077" y2="41.077" fill="#000" stroke="#3C3C3C" stroke-width="1" opacity=".25"/><line x1="0" x2="260" y1="27.385" y2="27.385" fill="#000" stroke="#3C3C3C" stroke-width="1" opacity=".25"/><line x1="0" x2="260" y1="13.692" y2="13.692" fill="#000" stroke="#3C3C3C" stroke-width="1" opacity=".25"/><line x1="0" x2="260" y1="0" y2="0" fill="#000" stroke="#3C3C3C" stroke-width="1" opacity=".25"/></g></g></g><g><g><line x1="0" x2="260" y1="164.308" y2="164.308" fill="#000" stroke="#999" stroke-width="1.5"/></g></g><g><g><line x1="0" x2="0" y1="0" y2="178" fill="#000" stroke="#999" stroke-width="1.5"/></g></g><g><g><g><g><g><path fill="none" stroke="#07B" stroke-width="2" d="M10.703333333333333,163.02564910999857L21.569166666666664,160.73452882121245L43.755833333333335,154.2298862192388L54.16666666666667,145.98364078802925L64.85916666666667,138.30634155391996L75.67083333333332,130.2683173207384L86.49333333333334,120.2584301613332L97.32666666666667,110.21093699189943L119.48083333333334,98.69642621790773L130.30333333333334,88.51672860363016L141.11499999999998,79.76579054976114L151.92666666666668,73.27097475776142L162.5,67.97580262707476L173.26833333333332,63.608779772404006L184.06916666666666,59.83351901416316L194.89166666666668,56.133082345213296L205.70333333333335,52.76998204942382L216.515,49.011703867526904L216.66666666666669,47.34608648271569L227.47833333333332,44.33950987577853L238.21416666666664,41.06325345911125L248.97166666666666,38.62470912476721L249.16666666666669,37.668345694045655"/></g></g></g></g><g opacity=".2"><g><g><g><path fill="none" stroke="#07B" stroke-width="2" d="M10.703333333333333,163.02564910999857L21.569166666666664,159.35985664794077L43.755833333333335,147.9854293213441L54.16666666666667,136.28605616092682L64.85916666666667,128.28285967386688L75.67083333333332,119.14883611752437L86.49333333333334,105.9441313651892L97.32666666666667,95.56159549493057L119.48083333333334,81.71475940484268L130.30333333333334,73.40106402910675L141.11499999999998,66.71875383303717L151.92666666666668,63.56409557049092L162.5,60.05033408678497L173.26833333333332,57.06680094278778L184.06916666666666,54.175065554105316L194.89166666666668,50.58503717642566L205.70333333333335,47.72675475707422L216.515,43.375240821104796L216.66666666666669,44.84791414554303L227.47833333333332,39.8299197783837L238.21416666666664,36.149048511798554L248.97166666666666,34.966972864591156L249.16666666666669,36.23381942969101"/></g></g></g></g></g></g><g clip-path="url(#clip_1)" transform="translate(70, 178)"><clipPath id="clip_1"><rect width="260" height="21"/></clipPath><g><g><line x1="0" x2="0" y1="0" y2="5" fill="#000" stroke="#CCC" stroke-width="1" visibility="inherit"/><line x1="21.667" x2="21.667" y1="0" y2="5" fill="#000" stroke="#CCC" stroke-width="1" visibility="inherit"/><line x1="43.333" x2="43.333" y1="0" y2="5" fill="#000" stroke="#CCC" stroke-width="1" visibility="inherit"/><line x1="65" x2="65" y1="0" y2="5" fill="#000" stroke="#CCC" stroke-width="1" visibility="inherit"/><line x1="86.667" x2="86.667" y1="0" y2="5" fill="#000" stroke="#CCC" stroke-width="1" visibility="inherit"/><line x1="108.333" x2="108.333" y1="0" y2="5" fill="#000" stroke="#CCC" stroke-width="1" visibility="inherit"/><line x1="130" x2="130" y1="0" y2="5" fill="#000" stroke="#CCC" stroke-width="1" visibility="inherit"/><line x1="151.667" x2="151.667" y1="0" y2="5" fill="#000" stroke="#CCC" stroke-width="1" visibility="inherit"/><line x1="173.333" x2="173.333" y1="0" y2="5" fill="#000" stroke="#CCC" stroke-width="1" visibility="inherit"/><line x1="195" x2="195" y1="0" y2="5" fill="#000" stroke="#CCC" stroke-width="1" visibility="inherit"/><line x1="216.667" x2="216.667" y1="0" y2="5" fill="#000" stroke="#CCC" stroke-width="1" visibility="inherit"/><line x1="238.333" x2="238.333" y1="0" y2="5" fill="#000" stroke="#CCC" stroke-width="1" visibility="inherit"/><line x1="260" x2="260" y1="0" y2="5" fill="#000" stroke="#CCC" stroke-width="1" visibility="inherit"/></g><g><text x="0" y="0" fill="#32313F" stroke="none" stroke-width="1" dx="0em" dy=".95em" font-family="&quot;Helvetica Neue&quot;, sans-serif" font-size="12" font-weight="200" text-anchor="middle" transform="translate(0, 8)" visibility="hidden">0</text><text x="21.667" y="0" fill="#32313F" stroke="none" stroke-width="1" dx="0em" dy=".95em" font-family="&quot;Helvetica Neue&quot;, sans-serif" font-size="12" font-weight="200" text-anchor="middle" transform="translate(0, 8)" visibility="inherit">2k</text><text x="43.333" y="0" fill="#32313F" stroke="none" stroke-width="1" dx="0em" dy=".95em" font-family="&quot;Helvetica Neue&quot;, sans-serif" font-size="12" font-weight="200" text-anchor="middle" transform="translate(0, 8)" visibility="hidden">4k</text><text x="65" y="0" fill="#32313F" stroke="none" stroke-width="1" dx="0em" dy=".95em" font-family="&quot;Helvetica Neue&quot;, sans-serif" font-size="12" font-weight="200" text-anchor="middle" transform="translate(0, 8)" visibility="inherit">6k</text><text x="86.667" y="0" fill="#32313F" stroke="none" stroke-width="1" dx="0em" dy=".95em" font-family="&quot;Helvetica Neue&quot;, sans-serif" font-size="12" font-weight="200" text-anchor="middle" transform="translate(0, 8)" visibility="hidden">8k</text><text x="108.333" y="0" fill="#32313F" stroke="none" stroke-width="1" dx="0em" dy=".95em" font-family="&quot;Helvetica Neue&quot;, sans-serif" font-size="12" font-weight="200" text-anchor="middle" transform="translate(0, 8)" visibility="inherit">10k</text><text x="130" y="0" fill="#32313F" stroke="none" stroke-width="1" dx="0em" dy=".95em" font-family="&quot;Helvetica Neue&quot;, sans-serif" font-size="12" font-weight="200" text-anchor="middle" transform="translate(0, 8)" visibility="hidden">12k</text><text x="151.667" y="0" fill="#32313F" stroke="none" stroke-width="1" dx="0em" dy=".95em" font-family="&quot;Helvetica Neue&quot;, sans-serif" font-size="12" font-weight="200" text-anchor="middle" transform="translate(0, 8)" visibility="inherit">14k</text><text x="173.333" y="0" fill="#32313F" stroke="none" stroke-width="1" dx="0em" dy=".95em" font-family="&quot;Helvetica Neue&quot;, sans-serif" font-size="12" font-weight="200" text-anchor="middle" transform="translate(0, 8)" visibility="hidden">16k</text><text x="195" y="0" fill="#32313F" stroke="none" stroke-width="1" dx="0em" dy=".95em" font-family="&quot;Helvetica Neue&quot;, sans-serif" font-size="12" font-weight="200" text-anchor="middle" transform="translate(0, 8)" visibility="inherit">18k</text><text x="216.667" y="0" fill="#32313F" stroke="none" stroke-width="1" dx="0em" dy=".95em" font-family="&quot;Helvetica Neue&quot;, sans-serif" font-size="12" font-weight="200" text-anchor="middle" transform="translate(0, 8)" visibility="hidden">20k</text><text x="238.333" y="0" fill="#32313F" stroke="none" stroke-width="1" dx="0em" dy=".95em" font-family="&quot;Helvetica Neue&quot;, sans-serif" font-size="12" font-weight="200" text-anchor="middle" transform="translate(0, 8)" visibility="inherit">22k</text><text x="260" y="0" fill="#32313F" stroke="none" stroke-width="1" dx="0em" dy=".95em" font-family="&quot;Helvetica Neue&quot;, sans-serif" font-size="12" font-weight="200" text-anchor="middle" transform="translate(0, 8)" visibility="hidden">24k</text></g><line x1="0" x2="260" y1="0" y2="0" fill="#000" stroke="#CCC" stroke-width="1"/></g></g></g></g></svg>