<svg viewBox="0 0 330.0000305175781 200.00001525878906" xmlns="http://www.w3.org/2000/svg"><g><g><g><g><g><line x1="34" y1="178" x2="29" y2="178" style="visibility: inherit;" fill="rgb(0, 0, 0)" stroke="rgb(204, 204, 204)" stroke-width="1px"></line><line x1="34" y1="164.30769230769232" x2="29" y2="164.30769230769232" style="visibility: inherit;" fill="rgb(0, 0, 0)" stroke="rgb(204, 204, 204)" stroke-width="1px"></line><line x1="34" y1="150.6153846153846" x2="29" y2="150.6153846153846" style="visibility: inherit;" fill="rgb(0, 0, 0)" stroke="rgb(204, 204, 204)" stroke-width="1px"></line><line x1="34" y1="136.9230769230769" x2="29" y2="136.9230769230769" style="visibility: inherit;" fill="rgb(0, 0, 0)" stroke="rgb(204, 204, 204)" stroke-width="1px"></line><line x1="34" y1="123.23076923076923" x2="29" y2="123.23076923076923" style="visibility: inherit;" fill="rgb(0, 0, 0)" stroke="rgb(204, 204, 204)" stroke-width="1px"></line><line x1="34" y1="109.53846153846153" x2="29" y2="109.53846153846153" style="visibility: inherit;" fill="rgb(0, 0, 0)" stroke="rgb(204, 204, 204)" stroke-width="1px"></line><line x1="34" y1="95.84615384615384" x2="29" y2="95.84615384615384" style="visibility: inherit;" fill="rgb(0, 0, 0)" stroke="rgb(204, 204, 204)" stroke-width="1px"></line><line x1="34" y1="82.15384615384616" x2="29" y2="82.15384615384616" style="visibility: inherit;" fill="rgb(0, 0, 0)" stroke="rgb(204, 204, 204)" stroke-width="1px"></line><line x1="34" y1="68.46153846153845" x2="29" y2="68.46153846153845" style="visibility: inherit;" fill="rgb(0, 0, 0)" stroke="rgb(204, 204, 204)" stroke-width="1px"></line><line x1="34" y1="54.769230769230774" x2="29" y2="54.769230769230774" style="visibility: inherit;" fill="rgb(0, 0, 0)" stroke="rgb(204, 204, 204)" stroke-width="1px"></line><line x1="34" y1="41.076923076923066" x2="29" y2="41.076923076923066" style="visibility: inherit;" fill="rgb(0, 0, 0)" stroke="rgb(204, 204, 204)" stroke-width="1px"></line><line x1="34" y1="27.384615384615387" x2="29" y2="27.384615384615387" style="visibility: inherit;" fill="rgb(0, 0, 0)" stroke="rgb(204, 204, 204)" stroke-width="1px"></line><line x1="34" y1="13.69230769230768" x2="29" y2="13.69230769230768" style="visibility: inherit;" fill="rgb(0, 0, 0)" stroke="rgb(204, 204, 204)" stroke-width="1px"></line><line x1="34" y1="0" x2="29" y2="0" style="visibility: inherit;" fill="rgb(0, 0, 0)" stroke="rgb(204, 204, 204)" stroke-width="1px"></line></g><g transform="translate(24, 0)"><text x="0" y="178" dx="0em" dy="0.3em" style="text-anchor: end; visibility: hidden; font-family: &quot;Helvetica Neue&quot;, sans-serif; font-size: 12px; font-weight: 200;" fill="rgb(50, 49, 63)" stroke="none" stroke-width="1px">-1</text><text x="0" y="164.30769230769232" dx="0em" dy="0.3em" style="text-anchor: end; visibility: inherit; font-family: &quot;Helvetica Neue&quot;, sans-serif; font-size: 12px; font-weight: 200;" fill="rgb(50, 49, 63)" stroke="none" stroke-width="1px">0</text><text x="0" y="150.6153846153846" dx="0em" dy="0.3em" style="text-anchor: end; visibility: hidden; font-family: &quot;Helvetica Neue&quot;, sans-serif; font-size: 12px; font-weight: 200;" fill="rgb(50, 49, 63)" stroke="none" stroke-width="1px">1</text><text x="0" y="136.9230769230769" dx="0em" dy="0.3em" style="text-anchor: end; visibility: inherit; font-family: &quot;Helvetica Neue&quot;, sans-serif; font-size: 12px; font-weight: 200;" fill="rgb(50, 49, 63)" stroke="none" stroke-width="1px">2</text><text x="0" y="123.23076923076923" dx="0em" dy="0.3em" style="text-anchor: end; visibility: hidden; font-family: &quot;Helvetica Neue&quot;, sans-serif; font-size: 12px; font-weight: 200;" fill="rgb(50, 49, 63)" stroke="none" stroke-width="1px">3</text><text x="0" y="109.53846153846153" dx="0em" dy="0.3em" style="text-anchor: end; visibility: inherit; font-family: &quot;Helvetica Neue&quot;, sans-serif; font-size: 12px; font-weight: 200;" fill="rgb(50, 49, 63)" stroke="none" stroke-width="1px">4</text><text x="0" y="95.84615384615384" dx="0em" dy="0.3em" style="text-anchor: end; visibility: hidden; font-family: &quot;Helvetica Neue&quot;, sans-serif; font-size: 12px; font-weight: 200;" fill="rgb(50, 49, 63)" stroke="none" stroke-width="1px">5</text><text x="0" y="82.15384615384616" dx="0em" dy="0.3em" style="text-anchor: end; visibility: inherit; font-family: &quot;Helvetica Neue&quot;, sans-serif; font-size: 12px; font-weight: 200;" fill="rgb(50, 49, 63)" stroke="none" stroke-width="1px">6</text><text x="0" y="68.46153846153845" dx="0em" dy="0.3em" style="text-anchor: end; visibility: hidden; font-family: &quot;Helvetica Neue&quot;, sans-serif; font-size: 12px; font-weight: 200;" fill="rgb(50, 49, 63)" stroke="none" stroke-width="1px">7</text><text x="0" y="54.769230769230774" dx="0em" dy="0.3em" style="text-anchor: end; visibility: inherit; font-family: &quot;Helvetica Neue&quot;, sans-serif; font-size: 12px; font-weight: 200;" fill="rgb(50, 49, 63)" stroke="none" stroke-width="1px">8</text><text x="0" y="41.076923076923066" dx="0em" dy="0.3em" style="text-anchor: end; visibility: hidden; font-family: &quot;Helvetica Neue&quot;, sans-serif; font-size: 12px; font-weight: 200;" fill="rgb(50, 49, 63)" stroke="none" stroke-width="1px">9</text><text x="0" y="27.384615384615387" dx="0em" dy="0.3em" style="text-anchor: end; visibility: inherit; font-family: &quot;Helvetica Neue&quot;, sans-serif; font-size: 12px; font-weight: 200;" fill="rgb(50, 49, 63)" stroke="none" stroke-width="1px">10</text><text x="0" y="13.69230769230768" dx="0em" dy="0.3em" style="text-anchor: end; visibility: hidden; font-family: &quot;Helvetica Neue&quot;, sans-serif; font-size: 12px; font-weight: 200;" fill="rgb(50, 49, 63)" stroke="none" stroke-width="1px">11</text><text x="0" y="0" dx="0em" dy="0.3em" style="text-anchor: end; visibility: hidden; font-family: &quot;Helvetica Neue&quot;, sans-serif; font-size: 12px; font-weight: 200;" fill="rgb(50, 49, 63)" stroke="none" stroke-width="1px">12</text></g><line x1="34" y1="0" x2="34" y2="178" fill="rgb(0, 0, 0)" stroke="rgb(204, 204, 204)" stroke-width="1px"></line></g></g><g transform="translate(34, 0)" clip-path="url(#clip_0)"><clipPath id="clip_0"><rect width="295" height="177"></rect></clipPath><g><g><g><line x1="0" y1="0" x2="0" y2="178" fill="rgb(0, 0, 0)" stroke="rgb(60, 60, 60)" stroke-width="1px" opacity="0.25"></line><line x1="22.76923076923077" y1="0" x2="22.76923076923077" y2="178" fill="rgb(0, 0, 0)" stroke="rgb(60, 60, 60)" stroke-width="1px" opacity="0.25"></line><line x1="45.53846153846154" y1="0" x2="45.53846153846154" y2="178" fill="rgb(0, 0, 0)" stroke="rgb(60, 60, 60)" stroke-width="1px" opacity="0.25"></line><line x1="68.3076923076923" y1="0" x2="68.3076923076923" y2="178" fill="rgb(0, 0, 0)" stroke="rgb(60, 60, 60)" stroke-width="1px" opacity="0.25"></line><line x1="91.07692307692308" y1="0" x2="91.07692307692308" y2="178" fill="rgb(0, 0, 0)" stroke="rgb(60, 60, 60)" stroke-width="1px" opacity="0.25"></line><line x1="113.84615384615385" y1="0" x2="113.84615384615385" y2="178" fill="rgb(0, 0, 0)" stroke="rgb(60, 60, 60)" stroke-width="1px" opacity="0.25"></line><line x1="136.6153846153846" y1="0" x2="136.6153846153846" y2="178" fill="rgb(0, 0, 0)" stroke="rgb(60, 60, 60)" stroke-width="1px" opacity="0.25"></line><line x1="159.3846153846154" y1="0" x2="159.3846153846154" y2="178" fill="rgb(0, 0, 0)" stroke="rgb(60, 60, 60)" stroke-width="1px" opacity="0.25"></line><line x1="182.15384615384616" y1="0" x2="182.15384615384616" y2="178" fill="rgb(0, 0, 0)" stroke="rgb(60, 60, 60)" stroke-width="1px" opacity="0.25"></line><line x1="204.9230769230769" y1="0" x2="204.9230769230769" y2="178" fill="rgb(0, 0, 0)" stroke="rgb(60, 60, 60)" stroke-width="1px" opacity="0.25"></line><line x1="227.6923076923077" y1="0" x2="227.6923076923077" y2="178" fill="rgb(0, 0, 0)" stroke="rgb(60, 60, 60)" stroke-width="1px" opacity="0.25"></line><line x1="250.46153846153845" y1="0" x2="250.46153846153845" y2="178" fill="rgb(0, 0, 0)" stroke="rgb(60, 60, 60)" stroke-width="1px" opacity="0.25"></line><line x1="273.2307692307692" y1="0" x2="273.2307692307692" y2="178" fill="rgb(0, 0, 0)" stroke="rgb(60, 60, 60)" stroke-width="1px" opacity="0.25"></line><line x1="296" y1="0" x2="296" y2="178" fill="rgb(0, 0, 0)" stroke="rgb(60, 60, 60)" stroke-width="1px" opacity="0.25"></line></g><g><line x1="0" y1="178" x2="296" y2="178" fill="rgb(0, 0, 0)" stroke="rgb(60, 60, 60)" stroke-width="1px" opacity="0.25"></line><line x1="0" y1="164.30769230769232" x2="296" y2="164.30769230769232" fill="rgb(0, 0, 0)" stroke="rgb(60, 60, 60)" stroke-width="1px" opacity="0.25"></line><line x1="0" y1="150.6153846153846" x2="296" y2="150.6153846153846" fill="rgb(0, 0, 0)" stroke="rgb(60, 60, 60)" stroke-width="1px" opacity="0.25"></line><line x1="0" y1="136.9230769230769" x2="296" y2="136.9230769230769" fill="rgb(0, 0, 0)" stroke="rgb(60, 60, 60)" stroke-width="1px" opacity="0.25"></line><line x1="0" y1="123.23076923076923" x2="296" y2="123.23076923076923" fill="rgb(0, 0, 0)" stroke="rgb(60, 60, 60)" stroke-width="1px" opacity="0.25"></line><line x1="0" y1="109.53846153846153" x2="296" y2="109.53846153846153" fill="rgb(0, 0, 0)" stroke="rgb(60, 60, 60)" stroke-width="1px" opacity="0.25"></line><line x1="0" y1="95.84615384615384" x2="296" y2="95.84615384615384" fill="rgb(0, 0, 0)" stroke="rgb(60, 60, 60)" stroke-width="1px" opacity="0.25"></line><line x1="0" y1="82.15384615384616" x2="296" y2="82.15384615384616" fill="rgb(0, 0, 0)" stroke="rgb(60, 60, 60)" stroke-width="1px" opacity="0.25"></line><line x1="0" y1="68.46153846153845" x2="296" y2="68.46153846153845" fill="rgb(0, 0, 0)" stroke="rgb(60, 60, 60)" stroke-width="1px" opacity="0.25"></line><line x1="0" y1="54.769230769230774" x2="296" y2="54.769230769230774" fill="rgb(0, 0, 0)" stroke="rgb(60, 60, 60)" stroke-width="1px" opacity="0.25"></line><line x1="0" y1="41.076923076923066" x2="296" y2="41.076923076923066" fill="rgb(0, 0, 0)" stroke="rgb(60, 60, 60)" stroke-width="1px" opacity="0.25"></line><line x1="0" y1="27.384615384615387" x2="296" y2="27.384615384615387" fill="rgb(0, 0, 0)" stroke="rgb(60, 60, 60)" stroke-width="1px" opacity="0.25"></line><line x1="0" y1="13.69230769230768" x2="296" y2="13.69230769230768" fill="rgb(0, 0, 0)" stroke="rgb(60, 60, 60)" stroke-width="1px" opacity="0.25"></line><line x1="0" y1="0" x2="296" y2="0" fill="rgb(0, 0, 0)" stroke="rgb(60, 60, 60)" stroke-width="1px" opacity="0.25"></line></g></g></g><g><g><line x1="0" y1="164.30769230769232" x2="296" y2="164.30769230769232" fill="rgb(0, 0, 0)" stroke="rgb(153, 153, 153)" stroke-width="1.5px"></line></g></g><g><g><line x1="22.76923076923077" y1="0" x2="22.76923076923077" y2="178" fill="rgb(0, 0, 0)" stroke="rgb(153, 153, 153)" stroke-width="1.5px"></line></g></g><g><g><g><g><g><path stroke="rgb(255, 112, 67)" stroke-width="2px" d="M22.780615384615384,27.384615384615387L23.919076923076922,92.45973848838072L25.05753846153846,117.10566850472094L26.195999999999998,120.08854435262907L27.334461538461536,127.44038950292858L28.472923076923074,135.20079343469934L29.611384615384615,138.840604252771L30.749846153846153,141.92317035301647L31.88830769230769,144.5700597185152L33.02676923076923,148.51849752763252L34.16523076923077,145.28115916630455L35.30369230769231,147.55574487300441L36.44215384615384,148.73003067138077L37.580615384615385,149.126998321123L38.719076923076926,148.29672265059946L39.85753846153846,147.85244041018086L40.996,148.28480916109046L42.13446153846154,149.210860328278L43.27292307692308,145.59220501033798L44.41138461538461,143.52732099974082L45.54984615384616,140.66663145554566L46.68830769230769,144.03057315315294L47.82676923076924,143.79791838546527L48.96523076923077,145.16873011810804L50.10369230769231,141.70061876902045L51.24215384615385,143.81455526062066L52.38061538461538,143.87169250000102L53.51907692307692,142.5419187384761L54.65753846153846,141.35814519461658L55.796,136.91994234076168L56.934461538461534,136.02150884501953L58.072923076923075,137.1908306493205L59.21138461538461,138.30269959137962L60.34984615384615,138.0356037583117L61.488307692307686,138.40971367250413L62.626769230769234,133.91370786329142L63.76523076923077,123.64864344952002L64.90369230769231,128.69671490702714L66.04215384615384,129.01256324667776L67.18061538461538,129.20538245357446L68.31907692307692,125.06920042959104L69.45753846153846,123.90951600351565L70.596,122.59921665833413L71.73446153846155,120.61679738908968L72.87292307692307,112.85864449381401L74.01138461538461,116.33334368714327L75.14984615384616,118.85479406826221L76.28830769230768,113.38768943263709L77.42676923076924,116.82477114089546L78.56523076923077,115.67114239808527L79.70369230769231,118.14597857017796L80.84215384615383,119.92069087957626L81.98061538461539,115.55799883372146L83.11907692307693,115.05808077911419L84.25753846153846,114.25512656183305L85.39599999999999,113.9098388818347L86.53446153846154,115.21513157476294L87.67292307692308,111.4199653103076L88.81138461538461,116.24094743381866L89.94984615384615,113.11312652233094L91.0883076923077,113.73632973149972L92.22676923076924,110.89675436308849L93.36523076923076,114.97626772687131L94.5036923076923,108.81349254624145L95.64215384615385,103.2517088324699L96.78061538461539,109.64397843856699L97.91907692307691,98.61527529603156L99.05753846153846,105.85434741157609L100.19600000000001,106.2869568966527L101.33446153846154,108.4819522487892L102.47292307692308,111.59820505124355L103.61138461538461,113.97468817685491L104.74984615384616,104.9918434225173L105.88830769230769,102.81710550067272L107.02676923076923,102.66898758934407L108.16523076923076,103.65669950175473L109.30369230769232,105.04303641881688L110.44215384615384,101.49145527296794L111.58061538461538,101.56802975534289L112.71907692307691,100.97029850858246L113.85753846153847,101.4500070047889L114.99600000000001,102.67607306344087L116.13446153846154,106.46812483793775L117.27292307692308,107.3153393133978L118.41138461538462,104.07499762607766L119.54984615384616,98.98748338728272L120.68830769230769,103.45139985938192L121.82676923076923,103.89191764390063L122.96523076923077,105.6964823499747L124.10369230769231,93.86766448956527L125.24215384615384,90.70686000284937L126.38061538461538,95.79200531797501L127.51907692307691,101.6335457869858L128.65753846153848,98.5929427715924L129.796,103.29936055149585L130.93446153846153,101.42702086956562L132.07292307692308,95.59892072791614L133.21138461538462,96.53550570776454L134.34984615384616,99.10187569967376L135.4883076923077,98.9617622101532L136.6267692307692,89.57559905535874L137.76523076923078,90.09293789273485L138.9036923076923,92.88352067373249L140.04215384615384,95.5191665119055L141.18061538461538,101.2330238816353L142.31907692307692,104.78478996186881L143.45753846153846,99.71107601522601L144.596,90.19746678434406L145.73446153846155,97.12770541709833L146.8729230769231,98.74112080181023L148.01138461538463,96.69654529203679L149.14984615384614,96.94099024801353L150.28830769230768,96.16411957112444L151.42676923076922,98.64433426333272L152.56523076923077,94.81961902230816L153.70369230769234,97.64870814692419L154.84215384615385,94.73177965546971L155.9806153846154,101.41095340107462L157.11907692307693,104.43664344004006L158.25753846153845,101.36491472449015L159.396,96.90681930048625L160.53446153846153,100.237556622406L161.67292307692307,103.38321763175001L162.81138461538464,100.45181708182945L163.94984615384615,102.89955992166753L165.0883076923077,99.1051360619248L166.22676923076924,99.80336102558262L167.36523076923078,104.3916103295501L168.5036923076923,105.9085507983254L169.64215384615383,101.66388590760289L170.78061538461537,108.95603045461469L171.91907692307694,101.56205624813877L173.05753846153848,103.67807797660075L174.196,103.78039441333611L175.33446153846154,107.0786566989895L176.47292307692308,97.51519936114363L177.61138461538462,94.76604159028143L178.74984615384614,96.66203739806348L179.88830769230768,101.18799318961746L181.02676923076925,105.6335913397724L182.1652307692308,99.21170452169322L183.3036923076923,101.80615948810608L184.44215384615384,95.13405295393447L185.58061538461538,99.06587840885408L186.71907692307693,84.79278476743347L187.85753846153844,89.11516318881044L188.99599999999998,92.35977191747422L190.13446153846155,93.75883492289852L191.2729230769231,97.13046745060285L192.41138461538463,98.20162046083084L193.54984615384615,101.38772903848955L194.6883076923077,103.16466433020761L195.82676923076923,97.85967999273095L196.96523076923077,100.04366931202603L198.10369230769228,96.00705911355465L199.24215384615383,96.8374574318685L200.3806153846154,98.89241921056716L201.51907692307694,99.27442978021837L202.65753846153848,100.90368899958196L203.796,99.510851511744L204.93446153846153,104.28761938177784L206.07292307692308,103.66290266262665L207.21138461538462,107.24594917403425L208.34984615384613,103.56829234847103L209.4883076923077,99.37614022747957L210.62676923076924,96.2725937915452L211.76523076923078,103.21383540806359L212.9036923076923,100.32121987558484L214.04215384615384,100.54542163904908L215.18061538461538,103.50667633031571L216.31907692307692,103.13665702452657L217.45753846153843,100.86715592266741L218.596,98.96649666803667L219.73446153846155,100.40933173542236L220.8729230769231,100.77881041186826L222.01138461538463,99.67678965569968L223.14984615384614,100.5034085818156L224.28830769230768,98.52174938093845L225.42676923076922,93.7866783916152L226.56523076923077,94.38639064444742L227.70369230769234,91.8864058318401L228.84215384615385,96.82032766165477L229.9806153846154,100.33551788370785L231.11907692307693,98.37640360343121L232.25753846153845,94.39757783757707L233.396,100.40891516122075L234.53446153846153,103.30931097675612L235.67292307692307,101.45048623604052L236.81138461538464,98.96374337361048L237.94984615384615,97.35197144577836L239.0883076923077,103.57439096331099L240.22676923076924,97.65508802224743L241.36523076923078,93.80205444251762L242.5036923076923,94.23883928923352L243.64215384615383,91.93206427229876L244.78061538461537,85.94900745728137L245.91907692307694,88.85175830103836L247.05753846153848,96.47966891330593L248.196,96.58599778846019L249.33446153846154,97.55340102950265L250.47292307692308,95.95112739678251L251.61138461538462,93.32994489064049L252.74984615384614,104.32150275087035L253.88830769230768,106.00119521319124L255.02676923076925,95.83161937424323L256.1652307692308,94.30559631584889L257.3036923076923,92.88485978254192L258.4421538461539,93.11146587257691L259.5806153846154,90.43613567518564L260.7190769230769,94.14668048958406L261.85753846153847,98.2709383744577L262.996,102.02512769846517L264.13446153846155,105.34157727696767L265.27292307692306,106.73995478198965L266.41138461538463,100.95636737814247L267.54984615384615,102.90952446741284L268.6883076923077,94.4646153609897L269.82676923076923,96.52432007648527L270.96523076923074,95.37701572260202L272.1036923076923,99.68132368080994L273.2421538461538,101.49000245222281L274.3806153846154,100.61415111310427L275.5190769230769,102.38900848660693L276.6575384615385,96.60216195841923L277.796,92.393990128308L278.93446153846156,87.84695354048579L280.0729230769231,92.48126935329537L281.2113846153846,97.27732752642471L282.34984615384616,94.44225623124319L283.4883076923077,92.30262911176462L284.62676923076924,97.53926698708769L285.76523076923075,93.16459618186725L286.9036923076923,87.18572048237006L288.04215384615384,89.85355417662906L289.18061538461535,94.24432115625538" style="fill: none;" fill="none"></path></g></g></g></g><g opacity="0.2"><g><g><g><path stroke="rgb(255, 112, 67)" stroke-width="2px" d="M22.780615384615384,27.384615384615387L23.919076923076922,131.50481235063992L25.05753846153846,140.7657613204076L26.195999999999998,123.59640634976901L27.334461538461536,137.0389585311596L28.472923076923074,145.93622581775372L29.611384615384615,144.04559195958652L30.749846153846153,146.41758131980896L31.88830769230769,148.47370740083548L33.02676923076923,154.38146750743573L34.16523076923077,140.45451404498175L35.30369230769231,150.95524523808405L36.44215384615384,150.4876251220703L37.580615384615385,149.72167209478525L38.719076923076926,147.0522851026975L39.85753846153846,147.1863303918105L40.996,148.93317932348987L42.13446153846154,150.59970195476825L43.27292307692308,140.16477329914386L44.41138461538461,140.43018372242267L45.54984615384616,136.37575402626624L46.68830769230769,149.0763750076294L47.82676923076924,143.44894082729633L48.96523076923077,147.22493147850037L50.10369230769231,136.4984763952402L51.24215384615385,146.98545098304749L52.38061538461538,143.95739821287302L53.51907692307692,140.5472601377047L54.65753846153846,139.58248596925L55.796,130.2626405129066L56.934461538461534,134.6738588993366L58.072923076923075,138.94481312311612L59.21138461538461,139.97050287173346L60.34984615384615,137.63496002784143L61.488307692307686,138.97087852771466L62.626769230769234,127.16969926540668L63.76523076923077,108.25104698768028L64.90369230769231,136.26882204642664L66.04215384615384,129.48633575439453L67.18061538461538,129.49461126327515L68.31907692307692,118.86492740190945L69.45753846153846,122.16998936579778L70.596,120.63376764150766L71.73446153846155,117.64316848608163L72.87292307692307,101.22141515291653L74.01138461538461,121.54539247659537L75.14984615384616,122.63696963970477L76.28830769230768,105.18703247950627L77.42676923076924,121.98039370316725L78.56523076923077,113.9406992838933L79.70369230769231,121.85823282828697L80.84215384615383,122.5827593436608L81.98061538461539,109.01396076495831L83.11907692307693,114.30820369720459L84.25753846153846,113.05069523591261L85.39599999999999,113.39190736183754L86.53446153846154,117.17307061415453L87.67292307692308,105.72721591362587L88.81138461538461,123.47242061908429L89.94984615384615,108.42139515509972L91.0883076923077,114.67113454525287L92.22676923076924,106.63739131047176L93.36523076923076,121.09553777254544L94.5036923076923,99.56932977529672L95.64215384615385,94.90903326181265L96.78061538461539,119.23238284771259L97.91907692307691,82.07222058222845L99.05753846153846,116.71295558489285L100.19600000000001,106.93587112426758L101.33446153846154,111.77444527699397L102.47292307692308,116.27258425492506L103.61138461538461,117.53941286527194L104.74984615384616,91.51757629101093L105.88830769230769,99.55499861790584L107.02676923076923,102.44681072235107L108.16523076923076,105.13826737037071L109.30369230769232,107.12254179441013L110.44215384615384,96.16408355419452L111.58061538461538,101.6828914789053L112.71907692307691,100.07370163844182L113.85753846153847,102.16956974909856L114.99600000000001,104.51517215141884L116.13446153846154,112.15620249968309L117.27292307692308,108.58616102658786L118.41138461538462,99.21448509509747L119.54984615384616,91.3562120290903L120.68830769230769,110.1472745675307L121.82676923076923,104.55269432067871L122.96523076923077,108.40332940908579L124.10369230769231,76.12443769895114L125.24215384615384,85.96565327277551L126.38061538461538,103.4197232906635L127.51907692307691,110.39585649050198L128.65753846153848,94.03203824850229L129.796,110.35898722135104L130.93446153846153,98.6185113466703L132.07292307692308,86.8567705154419L133.21138461538462,97.94038317753719L134.34984615384616,102.95143068753757L135.4883076923077,98.75159197587233L136.6267692307692,75.49635432316705L137.76523076923078,90.86894614879901L138.9036923076923,97.06939484522893L140.04215384615384,99.47263526916504L141.18061538461538,109.80380993623L142.31907692307692,110.11243908221905L143.45753846153846,92.1005050952618L144.596,75.92705293802115L145.73446153846155,107.52306336622972L146.8729230769231,101.16124387887808L148.01138461538463,93.62968202737662L149.14984615384614,97.30765768197867L150.28830769230768,94.99881355579083L151.42676923076922,102.36465630164513L152.56523076923077,89.0825461607713L153.70369230769234,101.89234183384822L154.84215384615385,90.35638691828801L155.9806153846154,111.42971401948195L157.11907692307693,108.9751784984882L158.25753846153845,96.7573216511653L159.396,90.21967616448036L160.53446153846153,105.23366260528564L161.67292307692307,108.10170914576604L162.81138461538464,96.05471625694862L163.94984615384615,106.57117418142465L165.0883076923077,93.4135002723107L166.22676923076924,100.85069847106934L167.36523076923078,111.27398428550133L168.5036923076923,108.18396150148831L169.64215384615383,95.29688857151912L170.78061538461537,119.8942472751324L171.91907692307694,90.47109493842491L173.05753846153848,106.85211056929369L174.196,103.9338690684392L175.33446153846154,112.02605012746957L176.47292307692308,83.17001335437482L177.61138461538462,90.64230493398813L178.74984615384614,99.50603110973651L179.88830769230768,107.97692687694843L181.02676923076925,112.30198856500479L182.1652307692308,89.57887429457445L183.3036923076923,105.69784193772536L184.44215384615384,85.1258931526771L185.58061538461538,104.96361659123347L186.71907692307693,63.38314430530255L187.85753846153844,95.5987308208759L188.99599999999998,97.22668501046988L190.13446153846155,95.85742943103497L191.2729230769231,102.18791624215933L192.41138461538463,99.80834997617282L193.54984615384615,106.16689190497765L194.6883076923077,105.8300672677847L195.82676923076923,89.90220348651593L196.96523076923077,103.31965329096867L198.10369230769228,89.95214381584755L199.24215384615383,98.08305490933932L200.3806153846154,101.97486187861516L201.51907692307694,99.8474456346952L202.65753846153848,103.34757782862737L203.796,97.42159527998705L204.93446153846153,111.45277118682861L206.07292307692308,102.72582758389987L207.21138461538462,112.62051894114568L208.34984615384613,98.0518071101262L209.4883076923077,93.08791204599234L210.62676923076924,91.61727413764366L211.76523076923078,113.62569783284114L212.9036923076923,95.98229657686673L214.04215384615384,100.88172428424542L215.18061538461538,107.94855836721567L216.31907692307692,102.58162806584285L217.45753846153843,97.46290426987868L218.596,96.11550778609056L219.73446153846155,102.5735843365009L220.8729230769231,101.33302842653714L222.01138461538463,98.02375852144681L223.14984615384614,101.74333697098952L224.28830769230768,95.54926057962271L225.42676923076922,86.68407190763034L226.56523076923077,95.28595902369572L227.70369230769234,88.13642861292914L228.84215384615385,104.22121040637677L229.9806153846154,105.60830321678749L231.11907692307693,95.43773218301627L232.25753846153845,88.42933918879584L233.396,109.42592114668626L234.53446153846153,107.65990470005916L235.67292307692307,98.66224912496713L236.81138461538464,95.23362907996544L237.94984615384615,94.9343135540302L239.0883076923077,112.90802023960994L240.22676923076924,88.77613361065204L241.36523076923078,88.02250407292291L242.5036923076923,94.89401655930739L243.64215384615383,88.4719017468966L244.78061538461537,76.97442223475531L245.91907692307694,93.20588456667386L247.05753846153848,107.92153483170729L248.196,96.74549110119159L249.33446153846154,99.00450589106633L250.47292307692308,93.54771694770226L251.61138461538462,89.39817113142747L252.74984615384614,120.80883954121516L253.88830769230768,108.52073390667255L255.02676923076925,80.57725561582126L256.1652307692308,92.0165617282574L257.3036923076923,90.75375498258151L258.4421538461539,93.4513750076294L259.5806153846154,86.42314037909875L260.7190769230769,99.71249771118164L261.85753846153847,104.45732520176814L262.996,107.65641168447641L264.13446153846155,110.3162516447214L265.27292307692306,108.83752103952261L266.41138461538463,92.28098627237173L267.54984615384615,105.83926010131836L268.6883076923077,81.79725170135498L269.82676923076923,99.61387714972862L270.96523076923074,93.65605919177716L272.1036923076923,106.13778561812181L273.2421538461538,104.20302060934213L274.3806153846154,99.30037410442645L275.5190769230769,105.05129454686092L276.6575384615385,87.9218921661377L277.796,86.08173238314114L278.93446153846156,81.02639865875244L280.0729230769231,99.43274307250977L281.2113846153846,104.47141478611873L282.34984615384616,90.18964928847093L283.4883076923077,89.09318843254677L284.62676923076924,105.3942238000723L285.76523076923075,86.60258997403659L286.9036923076923,78.21740693312424L288.04215384615384,93.85530471801758L289.18061538461535,100.83047162569486" style="fill: none;" fill="none"></path></g></g></g></g></g></g><g transform="translate(34, 178)" clip-path="url(#clip_1)"><clipPath id="clip_1"><rect width="295" height="21"></rect></clipPath><g><g><line x1="0" y1="0" x2="0" y2="5" style="visibility: inherit;" fill="rgb(0, 0, 0)" stroke="rgb(204, 204, 204)" stroke-width="1px"></line><line x1="22.76923076923077" y1="0" x2="22.76923076923077" y2="5" style="visibility: inherit;" fill="rgb(0, 0, 0)" stroke="rgb(204, 204, 204)" stroke-width="1px"></line><line x1="45.53846153846154" y1="0" x2="45.53846153846154" y2="5" style="visibility: inherit;" fill="rgb(0, 0, 0)" stroke="rgb(204, 204, 204)" stroke-width="1px"></line><line x1="68.3076923076923" y1="0" x2="68.3076923076923" y2="5" style="visibility: inherit;" fill="rgb(0, 0, 0)" stroke="rgb(204, 204, 204)" stroke-width="1px"></line><line x1="91.07692307692308" y1="0" x2="91.07692307692308" y2="5" style="visibility: inherit;" fill="rgb(0, 0, 0)" stroke="rgb(204, 204, 204)" stroke-width="1px"></line><line x1="113.84615384615385" y1="0" x2="113.84615384615385" y2="5" style="visibility: inherit;" fill="rgb(0, 0, 0)" stroke="rgb(204, 204, 204)" stroke-width="1px"></line><line x1="136.6153846153846" y1="0" x2="136.6153846153846" y2="5" style="visibility: inherit;" fill="rgb(0, 0, 0)" stroke="rgb(204, 204, 204)" stroke-width="1px"></line><line x1="159.3846153846154" y1="0" x2="159.3846153846154" y2="5" style="visibility: inherit;" fill="rgb(0, 0, 0)" stroke="rgb(204, 204, 204)" stroke-width="1px"></line><line x1="182.15384615384616" y1="0" x2="182.15384615384616" y2="5" style="visibility: inherit;" fill="rgb(0, 0, 0)" stroke="rgb(204, 204, 204)" stroke-width="1px"></line><line x1="204.9230769230769" y1="0" x2="204.9230769230769" y2="5" style="visibility: inherit;" fill="rgb(0, 0, 0)" stroke="rgb(204, 204, 204)" stroke-width="1px"></line><line x1="227.6923076923077" y1="0" x2="227.6923076923077" y2="5" style="visibility: inherit;" fill="rgb(0, 0, 0)" stroke="rgb(204, 204, 204)" stroke-width="1px"></line><line x1="250.46153846153845" y1="0" x2="250.46153846153845" y2="5" style="visibility: inherit;" fill="rgb(0, 0, 0)" stroke="rgb(204, 204, 204)" stroke-width="1px"></line><line x1="273.2307692307692" y1="0" x2="273.2307692307692" y2="5" style="visibility: inherit;" fill="rgb(0, 0, 0)" stroke="rgb(204, 204, 204)" stroke-width="1px"></line><line x1="296" y1="0" x2="296" y2="5" style="visibility: inherit;" fill="rgb(0, 0, 0)" stroke="rgb(204, 204, 204)" stroke-width="1px"></line></g><g transform="translate(0, 8)"><text x="0" y="0" dx="0em" dy="0.95em" style="text-anchor: middle; visibility: hidden; font-family: &quot;Helvetica Neue&quot;, sans-serif; font-size: 12px; font-weight: 200;" fill="rgb(50, 49, 63)" stroke="none" stroke-width="1px">-2k</text><text x="22.76923076923077" y="0" dx="0em" dy="0.95em" style="text-anchor: middle; visibility: inherit; font-family: &quot;Helvetica Neue&quot;, sans-serif; font-size: 12px; font-weight: 200;" fill="rgb(50, 49, 63)" stroke="none" stroke-width="1px">0</text><text x="45.53846153846154" y="0" dx="0em" dy="0.95em" style="text-anchor: middle; visibility: hidden; font-family: &quot;Helvetica Neue&quot;, sans-serif; font-size: 12px; font-weight: 200;" fill="rgb(50, 49, 63)" stroke="none" stroke-width="1px">2k</text><text x="68.3076923076923" y="0" dx="0em" dy="0.95em" style="text-anchor: middle; visibility: inherit; font-family: &quot;Helvetica Neue&quot;, sans-serif; font-size: 12px; font-weight: 200;" fill="rgb(50, 49, 63)" stroke="none" stroke-width="1px">4k</text><text x="91.07692307692308" y="0" dx="0em" dy="0.95em" style="text-anchor: middle; visibility: hidden; font-family: &quot;Helvetica Neue&quot;, sans-serif; font-size: 12px; font-weight: 200;" fill="rgb(50, 49, 63)" stroke="none" stroke-width="1px">6k</text><text x="113.84615384615385" y="0" dx="0em" dy="0.95em" style="text-anchor: middle; visibility: inherit; font-family: &quot;Helvetica Neue&quot;, sans-serif; font-size: 12px; font-weight: 200;" fill="rgb(50, 49, 63)" stroke="none" stroke-width="1px">8k</text><text x="136.6153846153846" y="0" dx="0em" dy="0.95em" style="text-anchor: middle; visibility: hidden; font-family: &quot;Helvetica Neue&quot;, sans-serif; font-size: 12px; font-weight: 200;" fill="rgb(50, 49, 63)" stroke="none" stroke-width="1px">10k</text><text x="159.3846153846154" y="0" dx="0em" dy="0.95em" style="text-anchor: middle; visibility: inherit; font-family: &quot;Helvetica Neue&quot;, sans-serif; font-size: 12px; font-weight: 200;" fill="rgb(50, 49, 63)" stroke="none" stroke-width="1px">12k</text><text x="182.15384615384616" y="0" dx="0em" dy="0.95em" style="text-anchor: middle; visibility: hidden; font-family: &quot;Helvetica Neue&quot;, sans-serif; font-size: 12px; font-weight: 200;" fill="rgb(50, 49, 63)" stroke="none" stroke-width="1px">14k</text><text x="204.9230769230769" y="0" dx="0em" dy="0.95em" style="text-anchor: middle; visibility: inherit; font-family: &quot;Helvetica Neue&quot;, sans-serif; font-size: 12px; font-weight: 200;" fill="rgb(50, 49, 63)" stroke="none" stroke-width="1px">16k</text><text x="227.6923076923077" y="0" dx="0em" dy="0.95em" style="text-anchor: middle; visibility: hidden; font-family: &quot;Helvetica Neue&quot;, sans-serif; font-size: 12px; font-weight: 200;" fill="rgb(50, 49, 63)" stroke="none" stroke-width="1px">18k</text><text x="250.46153846153845" y="0" dx="0em" dy="0.95em" style="text-anchor: middle; visibility: inherit; font-family: &quot;Helvetica Neue&quot;, sans-serif; font-size: 12px; font-weight: 200;" fill="rgb(50, 49, 63)" stroke="none" stroke-width="1px">20k</text><text x="273.2307692307692" y="0" dx="0em" dy="0.95em" style="text-anchor: middle; visibility: hidden; font-family: &quot;Helvetica Neue&quot;, sans-serif; font-size: 12px; font-weight: 200;" fill="rgb(50, 49, 63)" stroke="none" stroke-width="1px">22k</text><text x="296" y="0" dx="0em" dy="0.95em" style="text-anchor: middle; visibility: hidden; font-family: &quot;Helvetica Neue&quot;, sans-serif; font-size: 12px; font-weight: 200;" fill="rgb(50, 49, 63)" stroke="none" stroke-width="1px">24k</text></g><line x1="0" y1="0" x2="296" y2="0" fill="rgb(0, 0, 0)" stroke="rgb(204, 204, 204)" stroke-width="1px"></line></g></g></g></g></svg>