<svg xmlns="http://www.w3.org/2000/svg" viewBox="0 0 330 200"><g><g><g><g><g><line x1="58" x2="53" y1="178" y2="178" fill="#000" stroke="#CCC" stroke-width="1" visibility="inherit"/><line x1="58" x2="53" y1="160.2" y2="160.2" fill="#000" stroke="#CCC" stroke-width="1" visibility="inherit"/><line x1="58" x2="53" y1="142.4" y2="142.4" fill="#000" stroke="#CCC" stroke-width="1" visibility="inherit"/><line x1="58" x2="53" y1="124.6" y2="124.6" fill="#000" stroke="#CCC" stroke-width="1" visibility="inherit"/><line x1="58" x2="53" y1="106.8" y2="106.8" fill="#000" stroke="#CCC" stroke-width="1" visibility="inherit"/><line x1="58" x2="53" y1="89" y2="89" fill="#000" stroke="#CCC" stroke-width="1" visibility="inherit"/><line x1="58" x2="53" y1="71.2" y2="71.2" fill="#000" stroke="#CCC" stroke-width="1" visibility="inherit"/><line x1="58" x2="53" y1="53.4" y2="53.4" fill="#000" stroke="#CCC" stroke-width="1" visibility="inherit"/><line x1="58" x2="53" y1="35.6" y2="35.6" fill="#000" stroke="#CCC" stroke-width="1" visibility="inherit"/><line x1="58" x2="53" y1="17.8" y2="17.8" fill="#000" stroke="#CCC" stroke-width="1" visibility="inherit"/><line x1="58" x2="53" y1="0" y2="0" fill="#000" stroke="#CCC" stroke-width="1" visibility="inherit"/></g><g><text x="0" y="178" fill="#32313F" stroke="none" stroke-width="1" dx="0em" dy=".3em" font-family="&quot;Helvetica Neue&quot;, sans-serif" font-size="12" font-weight="200" text-anchor="end" transform="translate(48, 0)" visibility="hidden">0.13</text><text x="0" y="160.2" fill="#32313F" stroke="none" stroke-width="1" dx="0em" dy=".3em" font-family="&quot;Helvetica Neue&quot;, sans-serif" font-size="12" font-weight="200" text-anchor="end" transform="translate(48, 0)" visibility="inherit">0.14</text><text x="0" y="142.4" fill="#32313F" stroke="none" stroke-width="1" dx="0em" dy=".3em" font-family="&quot;Helvetica Neue&quot;, sans-serif" font-size="12" font-weight="200" text-anchor="end" transform="translate(48, 0)" visibility="hidden">0.15</text><text x="0" y="124.6" fill="#32313F" stroke="none" stroke-width="1" dx="0em" dy=".3em" font-family="&quot;Helvetica Neue&quot;, sans-serif" font-size="12" font-weight="200" text-anchor="end" transform="translate(48, 0)" visibility="inherit">0.16</text><text x="0" y="106.8" fill="#32313F" stroke="none" stroke-width="1" dx="0em" dy=".3em" font-family="&quot;Helvetica Neue&quot;, sans-serif" font-size="12" font-weight="200" text-anchor="end" transform="translate(48, 0)" visibility="hidden">0.17</text><text x="0" y="89" fill="#32313F" stroke="none" stroke-width="1" dx="0em" dy=".3em" font-family="&quot;Helvetica Neue&quot;, sans-serif" font-size="12" font-weight="200" text-anchor="end" transform="translate(48, 0)" visibility="inherit">0.18</text><text x="0" y="71.2" fill="#32313F" stroke="none" stroke-width="1" dx="0em" dy=".3em" font-family="&quot;Helvetica Neue&quot;, sans-serif" font-size="12" font-weight="200" text-anchor="end" transform="translate(48, 0)" visibility="hidden">0.19</text><text x="0" y="53.4" fill="#32313F" stroke="none" stroke-width="1" dx="0em" dy=".3em" font-family="&quot;Helvetica Neue&quot;, sans-serif" font-size="12" font-weight="200" text-anchor="end" transform="translate(48, 0)" visibility="inherit">0.2</text><text x="0" y="35.6" fill="#32313F" stroke="none" stroke-width="1" dx="0em" dy=".3em" font-family="&quot;Helvetica Neue&quot;, sans-serif" font-size="12" font-weight="200" text-anchor="end" transform="translate(48, 0)" visibility="hidden">0.21</text><text x="0" y="17.8" fill="#32313F" stroke="none" stroke-width="1" dx="0em" dy=".3em" font-family="&quot;Helvetica Neue&quot;, sans-serif" font-size="12" font-weight="200" text-anchor="end" transform="translate(48, 0)" visibility="inherit">0.22</text><text x="0" y="0" fill="#32313F" stroke="none" stroke-width="1" dx="0em" dy=".3em" font-family="&quot;Helvetica Neue&quot;, sans-serif" font-size="12" font-weight="200" text-anchor="end" transform="translate(48, 0)" visibility="hidden">0.23</text></g><line x1="58" x2="58" y1="0" y2="178" fill="#000" stroke="#CCC" stroke-width="1"/></g></g><g clip-path="url(#clip_0)" transform="translate(58, 0)"><clipPath id="clip_0"><rect width="271" height="177"/></clipPath><g><g><g><line x1="0" x2="0" y1="0" y2="178" fill="#000" stroke="#3C3C3C" stroke-width="1" opacity=".25"/><line x1="22.667" x2="22.667" y1="0" y2="178" fill="#000" stroke="#3C3C3C" stroke-width="1" opacity=".25"/><line x1="45.333" x2="45.333" y1="0" y2="178" fill="#000" stroke="#3C3C3C" stroke-width="1" opacity=".25"/><line x1="68" x2="68" y1="0" y2="178" fill="#000" stroke="#3C3C3C" stroke-width="1" opacity=".25"/><line x1="90.667" x2="90.667" y1="0" y2="178" fill="#000" stroke="#3C3C3C" stroke-width="1" opacity=".25"/><line x1="113.333" x2="113.333" y1="0" y2="178" fill="#000" stroke="#3C3C3C" stroke-width="1" opacity=".25"/><line x1="136" x2="136" y1="0" y2="178" fill="#000" stroke="#3C3C3C" stroke-width="1" opacity=".25"/><line x1="158.667" x2="158.667" y1="0" y2="178" fill="#000" stroke="#3C3C3C" stroke-width="1" opacity=".25"/><line x1="181.333" x2="181.333" y1="0" y2="178" fill="#000" stroke="#3C3C3C" stroke-width="1" opacity=".25"/><line x1="204" x2="204" y1="0" y2="178" fill="#000" stroke="#3C3C3C" stroke-width="1" opacity=".25"/><line x1="226.667" x2="226.667" y1="0" y2="178" fill="#000" stroke="#3C3C3C" stroke-width="1" opacity=".25"/><line x1="249.333" x2="249.333" y1="0" y2="178" fill="#000" stroke="#3C3C3C" stroke-width="1" opacity=".25"/><line x1="272" x2="272" y1="0" y2="178" fill="#000" stroke="#3C3C3C" stroke-width="1" opacity=".25"/></g><g><line x1="0" x2="272" y1="178" y2="178" fill="#000" stroke="#3C3C3C" stroke-width="1" opacity=".25"/><line x1="0" x2="272" y1="160.2" y2="160.2" fill="#000" stroke="#3C3C3C" stroke-width="1" opacity=".25"/><line x1="0" x2="272" y1="142.4" y2="142.4" fill="#000" stroke="#3C3C3C" stroke-width="1" opacity=".25"/><line x1="0" x2="272" y1="124.6" y2="124.6" fill="#000" stroke="#3C3C3C" stroke-width="1" opacity=".25"/><line x1="0" x2="272" y1="106.8" y2="106.8" fill="#000" stroke="#3C3C3C" stroke-width="1" opacity=".25"/><line x1="0" x2="272" y1="89" y2="89" fill="#000" stroke="#3C3C3C" stroke-width="1" opacity=".25"/><line x1="0" x2="272" y1="71.2" y2="71.2" fill="#000" stroke="#3C3C3C" stroke-width="1" opacity=".25"/><line x1="0" x2="272" y1="53.4" y2="53.4" fill="#000" stroke="#3C3C3C" stroke-width="1" opacity=".25"/><line x1="0" x2="272" y1="35.6" y2="35.6" fill="#000" stroke="#3C3C3C" stroke-width="1" opacity=".25"/><line x1="0" x2="272" y1="17.8" y2="17.8" fill="#000" stroke="#3C3C3C" stroke-width="1" opacity=".25"/><line x1="0" x2="272" y1="0" y2="0" fill="#000" stroke="#3C3C3C" stroke-width="1" opacity=".25"/></g></g></g><g><g><line x1="0" x2="272" y1="409.4" y2="409.4" fill="#000" stroke="#999" stroke-width="1.5"/></g></g><g><g><line x1="0" x2="0" y1="0" y2="178" fill="#000" stroke="#999" stroke-width="1.5"/></g></g><g><g><g><g><g><path fill="none" stroke="#07B" stroke-width="2" d="M11.197333333333333,132.10395666360856L22.564666666666664,126.01757849156851L45.775333333333336,84.26104103375451L56.66666666666667,54.25773689497042L67.85266666666666,33.302835198403386L79.16333333333333,26.40680982485557L90.48533333333333,30.53518818213331L101.81866666666667,36.607265744419436L124.99533333333333,48.31320588093226L136.31733333333332,60.12013011302403L147.628,68.65695682775731L158.93866666666668,81.75081128091104L170,89.17552993082253L181.26533333333333,94.97680222457832L192.56466666666668,105.3381705446927L203.88666666666668,112.77539115932231L215.19733333333335,122.60604701361441L226.508,127.33399094726268L226.66666666666669,128.78763427915987L237.97733333333335,131.65786277181076L249.20866666666666,135.06261398437735L260.4626666666667,137.7509787572218L260.6666666666667,142.7931183045976"/></g></g></g></g><g opacity=".2"><g><g><g><path fill="none" stroke="#07B" stroke-width="2" d="M11.197333333333333,132.10395666360856L22.564666666666664,122.36575158834458L45.775333333333336,44.17476507425309L56.66666666666667,18.97385122776032L67.85266666666666,5.944115543365484L79.16333333333333,16.867124164104467L90.48533333333333,36.43883528709412L101.81866666666667,45.46041312217713L124.99533333333333,65.57719382047654L136.31733333333332,77.65203657150269L147.628,81.38476850986481L158.93866666666668,101.32033678293229L170,100.28836491107941L181.26533333333333,103.66734536886216L192.56466666666668,120.86804362535477L203.88666666666668,123.92597677707673L215.19733333333335,137.3478707909584L226.508,134.42470642328263L226.66666666666669,130.96787782907487L237.97733333333335,135.9629431605339L249.20866666666666,140.16955407857895L260.4626666666667,141.78343745470048L260.6666666666667,150.35622807741166"/></g></g></g></g></g></g><g clip-path="url(#clip_1)" transform="translate(58, 178)"><clipPath id="clip_1"><rect width="271" height="21"/></clipPath><g><g><line x1="0" x2="0" y1="0" y2="5" fill="#000" stroke="#CCC" stroke-width="1" visibility="inherit"/><line x1="22.667" x2="22.667" y1="0" y2="5" fill="#000" stroke="#CCC" stroke-width="1" visibility="inherit"/><line x1="45.333" x2="45.333" y1="0" y2="5" fill="#000" stroke="#CCC" stroke-width="1" visibility="inherit"/><line x1="68" x2="68" y1="0" y2="5" fill="#000" stroke="#CCC" stroke-width="1" visibility="inherit"/><line x1="90.667" x2="90.667" y1="0" y2="5" fill="#000" stroke="#CCC" stroke-width="1" visibility="inherit"/><line x1="113.333" x2="113.333" y1="0" y2="5" fill="#000" stroke="#CCC" stroke-width="1" visibility="inherit"/><line x1="136" x2="136" y1="0" y2="5" fill="#000" stroke="#CCC" stroke-width="1" visibility="inherit"/><line x1="158.667" x2="158.667" y1="0" y2="5" fill="#000" stroke="#CCC" stroke-width="1" visibility="inherit"/><line x1="181.333" x2="181.333" y1="0" y2="5" fill="#000" stroke="#CCC" stroke-width="1" visibility="inherit"/><line x1="204" x2="204" y1="0" y2="5" fill="#000" stroke="#CCC" stroke-width="1" visibility="inherit"/><line x1="226.667" x2="226.667" y1="0" y2="5" fill="#000" stroke="#CCC" stroke-width="1" visibility="inherit"/><line x1="249.333" x2="249.333" y1="0" y2="5" fill="#000" stroke="#CCC" stroke-width="1" visibility="inherit"/><line x1="272" x2="272" y1="0" y2="5" fill="#000" stroke="#CCC" stroke-width="1" visibility="inherit"/></g><g><text x="0" y="0" fill="#32313F" stroke="none" stroke-width="1" dx="0em" dy=".95em" font-family="&quot;Helvetica Neue&quot;, sans-serif" font-size="12" font-weight="200" text-anchor="middle" transform="translate(0, 8)" visibility="hidden">0</text><text x="22.667" y="0" fill="#32313F" stroke="none" stroke-width="1" dx="0em" dy=".95em" font-family="&quot;Helvetica Neue&quot;, sans-serif" font-size="12" font-weight="200" text-anchor="middle" transform="translate(0, 8)" visibility="inherit">2k</text><text x="45.333" y="0" fill="#32313F" stroke="none" stroke-width="1" dx="0em" dy=".95em" font-family="&quot;Helvetica Neue&quot;, sans-serif" font-size="12" font-weight="200" text-anchor="middle" transform="translate(0, 8)" visibility="hidden">4k</text><text x="68" y="0" fill="#32313F" stroke="none" stroke-width="1" dx="0em" dy=".95em" font-family="&quot;Helvetica Neue&quot;, sans-serif" font-size="12" font-weight="200" text-anchor="middle" transform="translate(0, 8)" visibility="inherit">6k</text><text x="90.667" y="0" fill="#32313F" stroke="none" stroke-width="1" dx="0em" dy=".95em" font-family="&quot;Helvetica Neue&quot;, sans-serif" font-size="12" font-weight="200" text-anchor="middle" transform="translate(0, 8)" visibility="hidden">8k</text><text x="113.333" y="0" fill="#32313F" stroke="none" stroke-width="1" dx="0em" dy=".95em" font-family="&quot;Helvetica Neue&quot;, sans-serif" font-size="12" font-weight="200" text-anchor="middle" transform="translate(0, 8)" visibility="inherit">10k</text><text x="136" y="0" fill="#32313F" stroke="none" stroke-width="1" dx="0em" dy=".95em" font-family="&quot;Helvetica Neue&quot;, sans-serif" font-size="12" font-weight="200" text-anchor="middle" transform="translate(0, 8)" visibility="hidden">12k</text><text x="158.667" y="0" fill="#32313F" stroke="none" stroke-width="1" dx="0em" dy=".95em" font-family="&quot;Helvetica Neue&quot;, sans-serif" font-size="12" font-weight="200" text-anchor="middle" transform="translate(0, 8)" visibility="inherit">14k</text><text x="181.333" y="0" fill="#32313F" stroke="none" stroke-width="1" dx="0em" dy=".95em" font-family="&quot;Helvetica Neue&quot;, sans-serif" font-size="12" font-weight="200" text-anchor="middle" transform="translate(0, 8)" visibility="hidden">16k</text><text x="204" y="0" fill="#32313F" stroke="none" stroke-width="1" dx="0em" dy=".95em" font-family="&quot;Helvetica Neue&quot;, sans-serif" font-size="12" font-weight="200" text-anchor="middle" transform="translate(0, 8)" visibility="inherit">18k</text><text x="226.667" y="0" fill="#32313F" stroke="none" stroke-width="1" dx="0em" dy=".95em" font-family="&quot;Helvetica Neue&quot;, sans-serif" font-size="12" font-weight="200" text-anchor="middle" transform="translate(0, 8)" visibility="hidden">20k</text><text x="249.333" y="0" fill="#32313F" stroke="none" stroke-width="1" dx="0em" dy=".95em" font-family="&quot;Helvetica Neue&quot;, sans-serif" font-size="12" font-weight="200" text-anchor="middle" transform="translate(0, 8)" visibility="inherit">22k</text><text x="272" y="0" fill="#32313F" stroke="none" stroke-width="1" dx="0em" dy=".95em" font-family="&quot;Helvetica Neue&quot;, sans-serif" font-size="12" font-weight="200" text-anchor="middle" transform="translate(0, 8)" visibility="hidden">24k</text></g><line x1="0" x2="272" y1="0" y2="0" fill="#000" stroke="#CCC" stroke-width="1"/></g></g></g></g></svg>