<svg xmlns="http://www.w3.org/2000/svg" viewBox="0 0 1590.799 400"><g><g><g><g><g><line x1="58" x2="53" y1="378" y2="378" fill="#000" stroke="#CCC" stroke-width="1" visibility="inherit"/><line x1="58" x2="53" y1="330.75" y2="330.75" fill="#000" stroke="#CCC" stroke-width="1" visibility="inherit"/><line x1="58" x2="53" y1="283.5" y2="283.5" fill="#000" stroke="#CCC" stroke-width="1" visibility="inherit"/><line x1="58" x2="53" y1="236.25" y2="236.25" fill="#000" stroke="#CCC" stroke-width="1" visibility="inherit"/><line x1="58" x2="53" y1="189" y2="189" fill="#000" stroke="#CCC" stroke-width="1" visibility="inherit"/><line x1="58" x2="53" y1="141.75" y2="141.75" fill="#000" stroke="#CCC" stroke-width="1" visibility="inherit"/><line x1="58" x2="53" y1="94.5" y2="94.5" fill="#000" stroke="#CCC" stroke-width="1" visibility="inherit"/><line x1="58" x2="53" y1="47.25" y2="47.25" fill="#000" stroke="#CCC" stroke-width="1" visibility="inherit"/><line x1="58" x2="53" y1="0" y2="0" fill="#000" stroke="#CCC" stroke-width="1" visibility="inherit"/></g><g><text x="0" y="378" fill="#32313F" stroke="none" stroke-width="1" dx="0em" dy=".3em" font-family="&quot;Helvetica Neue&quot;, sans-serif" font-size="12" font-weight="200" text-anchor="end" transform="translate(48, 0)" visibility="hidden">0.85</text><text x="0" y="330.75" fill="#32313F" stroke="none" stroke-width="1" dx="0em" dy=".3em" font-family="&quot;Helvetica Neue&quot;, sans-serif" font-size="12" font-weight="200" text-anchor="end" transform="translate(48, 0)" visibility="inherit">0.9</text><text x="0" y="283.5" fill="#32313F" stroke="none" stroke-width="1" dx="0em" dy=".3em" font-family="&quot;Helvetica Neue&quot;, sans-serif" font-size="12" font-weight="200" text-anchor="end" transform="translate(48, 0)" visibility="inherit">0.95</text><text x="0" y="236.25" fill="#32313F" stroke="none" stroke-width="1" dx="0em" dy=".3em" font-family="&quot;Helvetica Neue&quot;, sans-serif" font-size="12" font-weight="200" text-anchor="end" transform="translate(48, 0)" visibility="inherit">1</text><text x="0" y="189" fill="#32313F" stroke="none" stroke-width="1" dx="0em" dy=".3em" font-family="&quot;Helvetica Neue&quot;, sans-serif" font-size="12" font-weight="200" text-anchor="end" transform="translate(48, 0)" visibility="inherit">1.05</text><text x="0" y="141.75" fill="#32313F" stroke="none" stroke-width="1" dx="0em" dy=".3em" font-family="&quot;Helvetica Neue&quot;, sans-serif" font-size="12" font-weight="200" text-anchor="end" transform="translate(48, 0)" visibility="inherit">1.1</text><text x="0" y="94.5" fill="#32313F" stroke="none" stroke-width="1" dx="0em" dy=".3em" font-family="&quot;Helvetica Neue&quot;, sans-serif" font-size="12" font-weight="200" text-anchor="end" transform="translate(48, 0)" visibility="inherit">1.15</text><text x="0" y="47.25" fill="#32313F" stroke="none" stroke-width="1" dx="0em" dy=".3em" font-family="&quot;Helvetica Neue&quot;, sans-serif" font-size="12" font-weight="200" text-anchor="end" transform="translate(48, 0)" visibility="inherit">1.2</text><text x="0" y="0" fill="#32313F" stroke="none" stroke-width="1" dx="0em" dy=".3em" font-family="&quot;Helvetica Neue&quot;, sans-serif" font-size="12" font-weight="200" text-anchor="end" transform="translate(48, 0)" visibility="hidden">1.25</text></g><line x1="58" x2="58" y1="0" y2="378" fill="#000" stroke="#CCC" stroke-width="1"/></g></g><g clip-path="url(#clip_0)" transform="translate(58, 0)"><clipPath id="clip_0"><rect width="1532" height="377"/></clipPath><g><g><g><line x1="0" x2="0" y1="0" y2="378" fill="#000" stroke="#3C3C3C" stroke-width="1" opacity=".25"/><line x1="127.733" x2="127.733" y1="0" y2="378" fill="#000" stroke="#3C3C3C" stroke-width="1" opacity=".25"/><line x1="255.467" x2="255.467" y1="0" y2="378" fill="#000" stroke="#3C3C3C" stroke-width="1" opacity=".25"/><line x1="383.2" x2="383.2" y1="0" y2="378" fill="#000" stroke="#3C3C3C" stroke-width="1" opacity=".25"/><line x1="510.933" x2="510.933" y1="0" y2="378" fill="#000" stroke="#3C3C3C" stroke-width="1" opacity=".25"/><line x1="638.667" x2="638.667" y1="0" y2="378" fill="#000" stroke="#3C3C3C" stroke-width="1" opacity=".25"/><line x1="766.4" x2="766.4" y1="0" y2="378" fill="#000" stroke="#3C3C3C" stroke-width="1" opacity=".25"/><line x1="894.133" x2="894.133" y1="0" y2="378" fill="#000" stroke="#3C3C3C" stroke-width="1" opacity=".25"/><line x1="1021.867" x2="1021.867" y1="0" y2="378" fill="#000" stroke="#3C3C3C" stroke-width="1" opacity=".25"/><line x1="1149.6" x2="1149.6" y1="0" y2="378" fill="#000" stroke="#3C3C3C" stroke-width="1" opacity=".25"/><line x1="1277.333" x2="1277.333" y1="0" y2="378" fill="#000" stroke="#3C3C3C" stroke-width="1" opacity=".25"/><line x1="1405.067" x2="1405.067" y1="0" y2="378" fill="#000" stroke="#3C3C3C" stroke-width="1" opacity=".25"/><line x1="1532.8" x2="1532.8" y1="0" y2="378" fill="#000" stroke="#3C3C3C" stroke-width="1" opacity=".25"/></g><g><line x1="0" x2="1532.8" y1="378" y2="378" fill="#000" stroke="#3C3C3C" stroke-width="1" opacity=".25"/><line x1="0" x2="1532.8" y1="330.75" y2="330.75" fill="#000" stroke="#3C3C3C" stroke-width="1" opacity=".25"/><line x1="0" x2="1532.8" y1="283.5" y2="283.5" fill="#000" stroke="#3C3C3C" stroke-width="1" opacity=".25"/><line x1="0" x2="1532.8" y1="236.25" y2="236.25" fill="#000" stroke="#3C3C3C" stroke-width="1" opacity=".25"/><line x1="0" x2="1532.8" y1="189" y2="189" fill="#000" stroke="#3C3C3C" stroke-width="1" opacity=".25"/><line x1="0" x2="1532.8" y1="141.75" y2="141.75" fill="#000" stroke="#3C3C3C" stroke-width="1" opacity=".25"/><line x1="0" x2="1532.8" y1="94.5" y2="94.5" fill="#000" stroke="#3C3C3C" stroke-width="1" opacity=".25"/><line x1="0" x2="1532.8" y1="47.25" y2="47.25" fill="#000" stroke="#3C3C3C" stroke-width="1" opacity=".25"/><line x1="0" x2="1532.8" y1="0" y2="0" fill="#000" stroke="#3C3C3C" stroke-width="1" opacity=".25"/></g></g></g><g><g><line x1="0" x2="1532.8" y1="1181.25" y2="1181.25" fill="#000" stroke="#999" stroke-width="1.5"/></g></g><g><g><line x1="0" x2="0" y1="0" y2="378" fill="#000" stroke="#999" stroke-width="1.5"/></g></g><g><g><g><g><g><path fill="none" stroke="#07B" stroke-width="2" d="M63.10026666666666,79.28232192993164L127.15853333333332,102.42993324995041L257.9574666666667,115.540388907705L319.3333333333333,122.6463751823587L382.36973333333333,126.7550795956011L446.10866666666664,131.27800892898455L509.9114666666666,140.39721101474578L573.7781333333334,148.24397726423948L704.3854666666666,163.50067501923436L768.1882666666667,180.00350216775078L831.9271999999999,192.24649472303324L895.6661333333334,206.1351281431093L958,219.00283216474756L1021.4834666666666,229.9769066350644L1085.1585333333333,243.75023746798624L1148.9613333333334,252.22678257422882L1212.7002666666667,263.901152639103L1276.4392,271.4968757979361L1277.3333333333333,276.3399038525943L1341.0722666666666,279.8439652448525L1404.3641333333333,286.9880706101074L1467.7837333333332,292.9402971522399L1468.9333333333334,298.8304460448125"/></g></g></g></g><g opacity=".2"><g><g><g><path fill="none" stroke="#07B" stroke-width="2" d="M63.10026666666666,79.28232192993164L127.15853333333332,116.31850004196167L257.9574666666667,128.12642633914948L319.3333333333333,131.00301504135132L382.36973333333333,132.1194040775299L446.10866666666664,137.53484845161438L509.9114666666666,153.4378159046173L573.7781333333334,159.68463778495789L704.3854666666666,186.00134074687958L768.1882666666667,204.50827717781064L831.9271999999999,210.49994051456449L895.6661333333334,226.8924969434738L958,238.26237291097638L1021.4834666666666,246.4165189862251L1085.1585333333333,264.39404368400574L1148.9613333333334,264.9356219172478L1212.7002666666667,281.407767534256L1276.4392,282.8885319828987L1277.3333333333333,283.6037081480026L1341.0722666666666,285.0997370481491L1404.3641333333333,297.70383685827255L1467.7837333333332,301.8684411048889L1468.9333333333334,307.66555309295654"/></g></g></g></g></g></g><g clip-path="url(#clip_1)" transform="translate(58, 378)"><clipPath id="clip_1"><rect width="1532" height="21"/></clipPath><g><g><line x1="0" x2="0" y1="0" y2="5" fill="#000" stroke="#CCC" stroke-width="1" visibility="inherit"/><line x1="127.733" x2="127.733" y1="0" y2="5" fill="#000" stroke="#CCC" stroke-width="1" visibility="inherit"/><line x1="255.467" x2="255.467" y1="0" y2="5" fill="#000" stroke="#CCC" stroke-width="1" visibility="inherit"/><line x1="383.2" x2="383.2" y1="0" y2="5" fill="#000" stroke="#CCC" stroke-width="1" visibility="inherit"/><line x1="510.933" x2="510.933" y1="0" y2="5" fill="#000" stroke="#CCC" stroke-width="1" visibility="inherit"/><line x1="638.667" x2="638.667" y1="0" y2="5" fill="#000" stroke="#CCC" stroke-width="1" visibility="inherit"/><line x1="766.4" x2="766.4" y1="0" y2="5" fill="#000" stroke="#CCC" stroke-width="1" visibility="inherit"/><line x1="894.133" x2="894.133" y1="0" y2="5" fill="#000" stroke="#CCC" stroke-width="1" visibility="inherit"/><line x1="1021.867" x2="1021.867" y1="0" y2="5" fill="#000" stroke="#CCC" stroke-width="1" visibility="inherit"/><line x1="1149.6" x2="1149.6" y1="0" y2="5" fill="#000" stroke="#CCC" stroke-width="1" visibility="inherit"/><line x1="1277.333" x2="1277.333" y1="0" y2="5" fill="#000" stroke="#CCC" stroke-width="1" visibility="inherit"/><line x1="1405.067" x2="1405.067" y1="0" y2="5" fill="#000" stroke="#CCC" stroke-width="1" visibility="inherit"/><line x1="1532.8" x2="1532.8" y1="0" y2="5" fill="#000" stroke="#CCC" stroke-width="1" visibility="inherit"/></g><g><text x="0" y="0" fill="#32313F" stroke="none" stroke-width="1" dx="0em" dy=".95em" font-family="&quot;Helvetica Neue&quot;, sans-serif" font-size="12" font-weight="200" text-anchor="middle" transform="translate(0, 8)" visibility="hidden">0</text><text x="127.733" y="0" fill="#32313F" stroke="none" stroke-width="1" dx="0em" dy=".95em" font-family="&quot;Helvetica Neue&quot;, sans-serif" font-size="12" font-weight="200" text-anchor="middle" transform="translate(0, 8)" visibility="inherit">2k</text><text x="255.467" y="0" fill="#32313F" stroke="none" stroke-width="1" dx="0em" dy=".95em" font-family="&quot;Helvetica Neue&quot;, sans-serif" font-size="12" font-weight="200" text-anchor="middle" transform="translate(0, 8)" visibility="inherit">4k</text><text x="383.2" y="0" fill="#32313F" stroke="none" stroke-width="1" dx="0em" dy=".95em" font-family="&quot;Helvetica Neue&quot;, sans-serif" font-size="12" font-weight="200" text-anchor="middle" transform="translate(0, 8)" visibility="inherit">6k</text><text x="510.933" y="0" fill="#32313F" stroke="none" stroke-width="1" dx="0em" dy=".95em" font-family="&quot;Helvetica Neue&quot;, sans-serif" font-size="12" font-weight="200" text-anchor="middle" transform="translate(0, 8)" visibility="inherit">8k</text><text x="638.667" y="0" fill="#32313F" stroke="none" stroke-width="1" dx="0em" dy=".95em" font-family="&quot;Helvetica Neue&quot;, sans-serif" font-size="12" font-weight="200" text-anchor="middle" transform="translate(0, 8)" visibility="inherit">10k</text><text x="766.4" y="0" fill="#32313F" stroke="none" stroke-width="1" dx="0em" dy=".95em" font-family="&quot;Helvetica Neue&quot;, sans-serif" font-size="12" font-weight="200" text-anchor="middle" transform="translate(0, 8)" visibility="inherit">12k</text><text x="894.133" y="0" fill="#32313F" stroke="none" stroke-width="1" dx="0em" dy=".95em" font-family="&quot;Helvetica Neue&quot;, sans-serif" font-size="12" font-weight="200" text-anchor="middle" transform="translate(0, 8)" visibility="inherit">14k</text><text x="1021.867" y="0" fill="#32313F" stroke="none" stroke-width="1" dx="0em" dy=".95em" font-family="&quot;Helvetica Neue&quot;, sans-serif" font-size="12" font-weight="200" text-anchor="middle" transform="translate(0, 8)" visibility="inherit">16k</text><text x="1149.6" y="0" fill="#32313F" stroke="none" stroke-width="1" dx="0em" dy=".95em" font-family="&quot;Helvetica Neue&quot;, sans-serif" font-size="12" font-weight="200" text-anchor="middle" transform="translate(0, 8)" visibility="inherit">18k</text><text x="1277.333" y="0" fill="#32313F" stroke="none" stroke-width="1" dx="0em" dy=".95em" font-family="&quot;Helvetica Neue&quot;, sans-serif" font-size="12" font-weight="200" text-anchor="middle" transform="translate(0, 8)" visibility="inherit">20k</text><text x="1405.067" y="0" fill="#32313F" stroke="none" stroke-width="1" dx="0em" dy=".95em" font-family="&quot;Helvetica Neue&quot;, sans-serif" font-size="12" font-weight="200" text-anchor="middle" transform="translate(0, 8)" visibility="inherit">22k</text><text x="1532.8" y="0" fill="#32313F" stroke="none" stroke-width="1" dx="0em" dy=".95em" font-family="&quot;Helvetica Neue&quot;, sans-serif" font-size="12" font-weight="200" text-anchor="middle" transform="translate(0, 8)" visibility="hidden">24k</text></g><line x1="0" x2="1532.8" y1="0" y2="0" fill="#000" stroke="#CCC" stroke-width="1"/></g></g></g></g></svg>