<svg viewBox="0 0 330.0000305175781 200.00001525878906" xmlns="http://www.w3.org/2000/svg"><g><g><g><g><g><line x1="58" y1="178" x2="53" y2="178" style="visibility: inherit;" fill="rgb(0, 0, 0)" stroke="rgb(204, 204, 204)" stroke-width="1px"></line><line x1="58" y1="160.2" x2="53" y2="160.2" style="visibility: inherit;" fill="rgb(0, 0, 0)" stroke="rgb(204, 204, 204)" stroke-width="1px"></line><line x1="58" y1="142.4" x2="53" y2="142.4" style="visibility: inherit;" fill="rgb(0, 0, 0)" stroke="rgb(204, 204, 204)" stroke-width="1px"></line><line x1="58" y1="124.6" x2="53" y2="124.6" style="visibility: inherit;" fill="rgb(0, 0, 0)" stroke="rgb(204, 204, 204)" stroke-width="1px"></line><line x1="58" y1="106.8" x2="53" y2="106.8" style="visibility: inherit;" fill="rgb(0, 0, 0)" stroke="rgb(204, 204, 204)" stroke-width="1px"></line><line x1="58" y1="89" x2="53" y2="89" style="visibility: inherit;" fill="rgb(0, 0, 0)" stroke="rgb(204, 204, 204)" stroke-width="1px"></line><line x1="58" y1="71.2" x2="53" y2="71.2" style="visibility: inherit;" fill="rgb(0, 0, 0)" stroke="rgb(204, 204, 204)" stroke-width="1px"></line><line x1="58" y1="53.400000000000006" x2="53" y2="53.400000000000006" style="visibility: inherit;" fill="rgb(0, 0, 0)" stroke="rgb(204, 204, 204)" stroke-width="1px"></line><line x1="58" y1="35.599999999999994" x2="53" y2="35.599999999999994" style="visibility: inherit;" fill="rgb(0, 0, 0)" stroke="rgb(204, 204, 204)" stroke-width="1px"></line><line x1="58" y1="17.799999999999983" x2="53" y2="17.799999999999983" style="visibility: inherit;" fill="rgb(0, 0, 0)" stroke="rgb(204, 204, 204)" stroke-width="1px"></line><line x1="58" y1="0" x2="53" y2="0" style="visibility: inherit;" fill="rgb(0, 0, 0)" stroke="rgb(204, 204, 204)" stroke-width="1px"></line></g><g transform="translate(48, 0)"><text x="0" y="178" dx="0em" dy="0.3em" style="text-anchor: end; visibility: hidden; font-family: &quot;Helvetica Neue&quot;, sans-serif; font-size: 12px; font-weight: 200;" fill="rgb(50, 49, 63)" stroke="none" stroke-width="1px">-0.5</text><text x="0" y="160.2" dx="0em" dy="0.3em" style="text-anchor: end; visibility: inherit; font-family: &quot;Helvetica Neue&quot;, sans-serif; font-size: 12px; font-weight: 200;" fill="rgb(50, 49, 63)" stroke="none" stroke-width="1px">0</text><text x="0" y="142.4" dx="0em" dy="0.3em" style="text-anchor: end; visibility: hidden; font-family: &quot;Helvetica Neue&quot;, sans-serif; font-size: 12px; font-weight: 200;" fill="rgb(50, 49, 63)" stroke="none" stroke-width="1px">0.5</text><text x="0" y="124.6" dx="0em" dy="0.3em" style="text-anchor: end; visibility: inherit; font-family: &quot;Helvetica Neue&quot;, sans-serif; font-size: 12px; font-weight: 200;" fill="rgb(50, 49, 63)" stroke="none" stroke-width="1px">1</text><text x="0" y="106.8" dx="0em" dy="0.3em" style="text-anchor: end; visibility: hidden; font-family: &quot;Helvetica Neue&quot;, sans-serif; font-size: 12px; font-weight: 200;" fill="rgb(50, 49, 63)" stroke="none" stroke-width="1px">1.5</text><text x="0" y="89" dx="0em" dy="0.3em" style="text-anchor: end; visibility: inherit; font-family: &quot;Helvetica Neue&quot;, sans-serif; font-size: 12px; font-weight: 200;" fill="rgb(50, 49, 63)" stroke="none" stroke-width="1px">2</text><text x="0" y="71.2" dx="0em" dy="0.3em" style="text-anchor: end; visibility: hidden; font-family: &quot;Helvetica Neue&quot;, sans-serif; font-size: 12px; font-weight: 200;" fill="rgb(50, 49, 63)" stroke="none" stroke-width="1px">2.5</text><text x="0" y="53.400000000000006" dx="0em" dy="0.3em" style="text-anchor: end; visibility: inherit; font-family: &quot;Helvetica Neue&quot;, sans-serif; font-size: 12px; font-weight: 200;" fill="rgb(50, 49, 63)" stroke="none" stroke-width="1px">3</text><text x="0" y="35.599999999999994" dx="0em" dy="0.3em" style="text-anchor: end; visibility: hidden; font-family: &quot;Helvetica Neue&quot;, sans-serif; font-size: 12px; font-weight: 200;" fill="rgb(50, 49, 63)" stroke="none" stroke-width="1px">3.5</text><text x="0" y="17.799999999999983" dx="0em" dy="0.3em" style="text-anchor: end; visibility: inherit; font-family: &quot;Helvetica Neue&quot;, sans-serif; font-size: 12px; font-weight: 200;" fill="rgb(50, 49, 63)" stroke="none" stroke-width="1px">4</text><text x="0" y="0" dx="0em" dy="0.3em" style="text-anchor: end; visibility: hidden; font-family: &quot;Helvetica Neue&quot;, sans-serif; font-size: 12px; font-weight: 200;" fill="rgb(50, 49, 63)" stroke="none" stroke-width="1px">4.5</text></g><line x1="58" y1="0" x2="58" y2="178" fill="rgb(0, 0, 0)" stroke="rgb(204, 204, 204)" stroke-width="1px"></line></g></g><g transform="translate(58, 0)" clip-path="url(#clip_0)"><clipPath id="clip_0"><rect width="271" height="177"></rect></clipPath><g><g><g><line x1="0" y1="0" x2="0" y2="178" fill="rgb(0, 0, 0)" stroke="rgb(60, 60, 60)" stroke-width="1px" opacity="0.25"></line><line x1="20.923076923076923" y1="0" x2="20.923076923076923" y2="178" fill="rgb(0, 0, 0)" stroke="rgb(60, 60, 60)" stroke-width="1px" opacity="0.25"></line><line x1="41.84615384615385" y1="0" x2="41.84615384615385" y2="178" fill="rgb(0, 0, 0)" stroke="rgb(60, 60, 60)" stroke-width="1px" opacity="0.25"></line><line x1="62.769230769230774" y1="0" x2="62.769230769230774" y2="178" fill="rgb(0, 0, 0)" stroke="rgb(60, 60, 60)" stroke-width="1px" opacity="0.25"></line><line x1="83.6923076923077" y1="0" x2="83.6923076923077" y2="178" fill="rgb(0, 0, 0)" stroke="rgb(60, 60, 60)" stroke-width="1px" opacity="0.25"></line><line x1="104.61538461538463" y1="0" x2="104.61538461538463" y2="178" fill="rgb(0, 0, 0)" stroke="rgb(60, 60, 60)" stroke-width="1px" opacity="0.25"></line><line x1="125.53846153846155" y1="0" x2="125.53846153846155" y2="178" fill="rgb(0, 0, 0)" stroke="rgb(60, 60, 60)" stroke-width="1px" opacity="0.25"></line><line x1="146.46153846153845" y1="0" x2="146.46153846153845" y2="178" fill="rgb(0, 0, 0)" stroke="rgb(60, 60, 60)" stroke-width="1px" opacity="0.25"></line><line x1="167.3846153846154" y1="0" x2="167.3846153846154" y2="178" fill="rgb(0, 0, 0)" stroke="rgb(60, 60, 60)" stroke-width="1px" opacity="0.25"></line><line x1="188.3076923076923" y1="0" x2="188.3076923076923" y2="178" fill="rgb(0, 0, 0)" stroke="rgb(60, 60, 60)" stroke-width="1px" opacity="0.25"></line><line x1="209.23076923076925" y1="0" x2="209.23076923076925" y2="178" fill="rgb(0, 0, 0)" stroke="rgb(60, 60, 60)" stroke-width="1px" opacity="0.25"></line><line x1="230.15384615384616" y1="0" x2="230.15384615384616" y2="178" fill="rgb(0, 0, 0)" stroke="rgb(60, 60, 60)" stroke-width="1px" opacity="0.25"></line><line x1="251.0769230769231" y1="0" x2="251.0769230769231" y2="178" fill="rgb(0, 0, 0)" stroke="rgb(60, 60, 60)" stroke-width="1px" opacity="0.25"></line><line x1="272" y1="0" x2="272" y2="178" fill="rgb(0, 0, 0)" stroke="rgb(60, 60, 60)" stroke-width="1px" opacity="0.25"></line></g><g><line x1="0" y1="178" x2="272" y2="178" fill="rgb(0, 0, 0)" stroke="rgb(60, 60, 60)" stroke-width="1px" opacity="0.25"></line><line x1="0" y1="160.2" x2="272" y2="160.2" fill="rgb(0, 0, 0)" stroke="rgb(60, 60, 60)" stroke-width="1px" opacity="0.25"></line><line x1="0" y1="142.4" x2="272" y2="142.4" fill="rgb(0, 0, 0)" stroke="rgb(60, 60, 60)" stroke-width="1px" opacity="0.25"></line><line x1="0" y1="124.6" x2="272" y2="124.6" fill="rgb(0, 0, 0)" stroke="rgb(60, 60, 60)" stroke-width="1px" opacity="0.25"></line><line x1="0" y1="106.8" x2="272" y2="106.8" fill="rgb(0, 0, 0)" stroke="rgb(60, 60, 60)" stroke-width="1px" opacity="0.25"></line><line x1="0" y1="89" x2="272" y2="89" fill="rgb(0, 0, 0)" stroke="rgb(60, 60, 60)" stroke-width="1px" opacity="0.25"></line><line x1="0" y1="71.2" x2="272" y2="71.2" fill="rgb(0, 0, 0)" stroke="rgb(60, 60, 60)" stroke-width="1px" opacity="0.25"></line><line x1="0" y1="53.400000000000006" x2="272" y2="53.400000000000006" fill="rgb(0, 0, 0)" stroke="rgb(60, 60, 60)" stroke-width="1px" opacity="0.25"></line><line x1="0" y1="35.599999999999994" x2="272" y2="35.599999999999994" fill="rgb(0, 0, 0)" stroke="rgb(60, 60, 60)" stroke-width="1px" opacity="0.25"></line><line x1="0" y1="17.799999999999983" x2="272" y2="17.799999999999983" fill="rgb(0, 0, 0)" stroke="rgb(60, 60, 60)" stroke-width="1px" opacity="0.25"></line><line x1="0" y1="0" x2="272" y2="0" fill="rgb(0, 0, 0)" stroke="rgb(60, 60, 60)" stroke-width="1px" opacity="0.25"></line></g></g></g><g><g><line x1="0" y1="160.2" x2="272" y2="160.2" fill="rgb(0, 0, 0)" stroke="rgb(153, 153, 153)" stroke-width="1.5px"></line></g></g><g><g><line x1="20.923076923076923" y1="0" x2="20.923076923076923" y2="178" fill="rgb(0, 0, 0)" stroke="rgb(153, 153, 153)" stroke-width="1.5px"></line></g></g><g><g><g><g><g><path stroke="rgb(255, 112, 67)" stroke-width="2px" d="M20.93353846153846,27.714484024047835L21.979692307692307,76.19946779608726L23.025846153846153,95.40984723908562L24.072,104.52302181580488L25.118153846153845,112.90689077271429L26.16430769230769,116.85963281222753L27.210461538461537,124.33334675226028L28.256615384615383,127.84143049204721L29.30276923076923,131.0695829985697L30.348923076923075,135.61449308773865L31.39507692307692,136.93658476574046L32.44123076923077,136.54780155016016L33.48738461538461,137.86716077289745L34.53353846153846,136.51724985352126L35.57969230769231,132.30394495592202L36.625846153846155,135.45583896503575L37.672000000000004,134.39836699451072L38.71815384615385,138.2714077804606L39.764307692307696,136.58373780777185L40.81046153846154,136.9939621737775L41.85661538461539,137.22078743530295L42.90276923076923,138.47933412869799L43.94892307692308,136.88873366008988L44.99507692307692,139.08406266157706L46.04123076923077,138.33709032710317L47.087384615384615,140.09743572692156L48.13353846153846,140.3773296158406L49.17969230769231,138.93364464562583L50.22584615384615,135.11715226768433L51.272,134.99950800559253L52.31815384615384,136.9597350087421L53.36430769230769,136.6790087551963L54.41046153846153,139.145288495239L55.45661538461538,139.25587243159532L56.502769230769225,141.77424211015227L57.548923076923074,140.07223642208962L58.59507692307692,135.5420152260967L59.64123076923077,135.79801215708588L60.687384615384616,134.76957651612713L61.733538461538465,134.52863404144952L62.77969230769231,133.3674889185063L63.82584615384616,134.64971961667442L64.872,135.94240630956247L65.91815384615384,131.2063477728015L66.96430769230768,129.3913332396794L68.01046153846154,134.06104574793187L69.05661538461538,135.80774162652835L70.10276923076923,133.94453188917473L71.14892307692308,136.54716704575608L72.19507692307693,135.43165072373677L73.24123076923077,137.85606820448697L74.28738461538461,138.87558564582443L75.33353846153847,138.50745633744518L76.37969230769231,136.35311432065333L77.42584615384615,134.7557047187185L78.472,134.09633245342323L79.51815384615385,135.46786550446393L80.5643076923077,136.44259721138513L81.61046153846154,138.49054875194113L82.65661538461538,136.21368000876345L83.70276923076923,137.5220131085601L84.74892307692308,134.12680219687735L85.79507692307692,135.85068733619283L86.84123076923076,135.20010613874572L87.88738461538462,131.61863292381747L88.93353846153846,135.4576593799924L89.9796923076923,135.59357603571027L91.02584615384615,136.4091025554014L92.072,135.97746636646227L93.11815384615385,139.01547073231478L94.16430769230769,136.8704550010344L95.21046153846153,138.63080537214162L96.25661538461539,136.8391710894959L97.30276923076923,134.3525805269275L98.34892307692307,136.46628832546438L99.39507692307691,134.56136121587494L100.44123076923077,134.2870363130363L101.48738461538461,135.88877192820266L102.53353846153846,132.83571957400534L103.5796923076923,134.51381072313245L104.62584615384615,136.2772497803608L105.672,137.3043076414251L106.71815384615384,137.56130888333223L107.76430769230768,138.3745363561529L108.81046153846154,133.88363217402804L109.8566153846154,132.91133255415744L110.90276923076922,134.44693205507747L111.94892307692308,136.00801575274556L112.99507692307694,136.27102342183167L114.04123076923078,134.3901559861587L115.08738461538462,134.36886381340543L116.13353846153846,131.9518180706055L117.1796923076923,134.81183637726016L118.22584615384616,132.01819070308034L119.272,134.31491129951849L120.31815384615385,131.55962404106364L121.36430769230769,132.40936958607617L122.41046153846155,133.62407128701557L123.45661538461539,134.13790731841294L124.50276923076923,134.27036243685467L125.54892307692307,131.86477997546422L126.59507692307693,132.42992281582968L127.64123076923077,134.57254915992627L128.68738461538462,138.35842186427243L129.73353846153844,140.6748034132488L130.7796923076923,140.34046656447455L131.82584615384616,140.64852306460025L132.87199999999999,138.5864714265745L133.91815384615384,140.18853019481188L134.9643076923077,139.3057079243975L136.01046153846153,137.65534684707626L137.05661538461538,135.64878227740468L138.1027692307692,133.68002609747614L139.14892307692307,137.28021118842344L140.1950769230769,136.4639077341722L141.24123076923078,138.82869921661415L142.2873846153846,137.6561736162722L143.33353846153847,141.30746401645064L144.37969230769232,140.19748873053385L145.42584615384615,142.05183143221373L146.47199999999998,140.80338514091392L147.51815384615384,141.96983964587344L148.5643076923077,142.14925838080103L149.61046153846155,137.1640069804612L150.6566153846154,137.3630716038956L151.70276923076923,137.0709052391776L152.7489230769231,135.56486964153817L153.79507692307692,138.4244005675767L154.84123076923078,139.13568793270912L155.8873846153846,139.14026001533227L156.93353846153846,142.82750214243146L157.97969230769232,141.3041269606603L159.02584615384617,140.87715331949312L160.072,142.95106724880645L161.11815384615386,145.74961855877942L162.1643076923077,143.20128371995392L163.21046153846154,140.86679570842804L164.25661538461537,141.35485157590523L165.30276923076923,143.66703275931724L166.34892307692309,142.7755544811061L167.39507692307694,140.0022959893686L168.44123076923077,138.75603511010067L169.48738461538463,137.974874384847L170.53353846153846,141.16863256910247L171.5796923076923,139.47445398222686L172.62584615384614,140.5705340150075L173.672,140.40333957213622L174.71815384615385,139.85418561660327L175.7643076923077,139.33011947848246L176.81046153846154,139.8986205743423L177.8566153846154,141.75604484597866L178.90276923076922,140.3162258226873L179.94892307692308,138.90843061919222L180.9950769230769,141.23390997597699L182.04123076923076,137.1446698591061L183.0873846153846,138.02930904894754L184.13353846153848,140.31515017908623L185.1796923076923,144.07041137076504L186.22584615384616,143.04558936510733L187.272,142.7770037159577L188.31815384615385,142.49894272716375L189.36430769230768,144.7524586452933L190.41046153846153,145.169738279217L191.45661538461536,142.3687366595468L192.50276923076925,141.5804782933355L193.54892307692307,143.00481736578706L194.59507692307693,146.58465240429737L195.64123076923076,144.63797125596344L196.68738461538462,144.64416179048143L197.73353846153844,145.23737031571343L198.7796923076923,143.70236371965572L199.82584615384613,142.32236099607564L200.872,140.18939903477917L201.91815384615384,140.59937891900594L202.9643076923077,141.9598406645063L204.01046153846153,143.29112597062607L205.05661538461538,142.5705990252162L206.1027692307692,142.97072690589818L207.14892307692307,143.72683763184304L208.1950769230769,143.87585372732968L209.24123076923078,143.48005714301402L210.2873846153846,143.76237706115327L211.33353846153847,144.61663060528326L212.37969230769232,142.05538203443461L213.42584615384615,140.19901491478308L214.47199999999998,142.9682777242376L215.51815384615384,144.4297891996213L216.5643076923077,144.45128559004712L217.61046153846155,143.101570809671L218.6566153846154,144.25320560263913L219.70276923076923,145.74527738170218L220.7489230769231,142.45045842693085L221.79507692307692,140.456309859549L222.84123076923078,142.53525015866458L223.8873846153846,141.97922477934182L224.93353846153846,141.32110605367077L225.97969230769232,141.53960874633822L227.02584615384617,142.77281462524434L228.072,143.8770710383302L229.11815384615386,145.11764329400336L230.1643076923077,144.0420155151288L231.21046153846154,144.0508207955122L232.25661538461537,147.67209287394047L233.30276923076923,147.7323777908621L234.34892307692309,145.02869326082097L235.39507692307694,142.93485662345424L236.44123076923077,143.10070338847837L237.48738461538463,142.83096163632035L238.53353846153846,141.9645350906942L239.5796923076923,142.4008242448386L240.62584615384614,143.7158353328834L241.672,143.62120097161113L242.71815384615385,144.14295566368565L243.7643076923077,145.60163130932133L244.81046153846154,144.61662706955124L245.8566153846154,145.69850676312356L246.90276923076922,142.67814747485107L247.94892307692308,144.20298162932744L248.9950769230769,143.3302775659296L250.04123076923076,144.21152503717738L251.0873846153846,144.20592263834953L252.13353846153848,144.76502504525948L253.1796923076923,146.1795572529934L254.22584615384616,144.91566774908912L255.272,143.43666368999607L256.31815384615385,144.1039174501808L257.3643076923077,144.87229983477067L258.4104615384615,144.60514983933132L259.45661538461536,144.01252858520127L260.5027692307692,144.6920620005165L261.5489230769231,144.58071539645402L262.59507692307693,144.70505641129617" style="fill: none;" fill="none"></path></g></g></g></g><g opacity="0.2"><g><g><g><path stroke="rgb(255, 112, 67)" stroke-width="2px" d="M20.93353846153846,27.714484024047835L21.979692307692307,105.29045805931092L23.025846153846153,113.85181150436402L24.072,115.24011511802674L25.118153846153845,123.85287008285522L26.16430769230769,122.32769804000854L27.210461538461537,135.02087726593018L28.256615384615383,132.95625026226043L29.30276923076923,135.83048090934753L30.348923076923075,142.36315488815308L31.39507692307692,138.90773100852965L32.44123076923077,135.96674246788024L33.48738461538461,139.84189167022706L34.53353846153846,134.49502809047698L35.57969230769231,125.98894019126892L36.625846153846155,140.18145701885223L37.672000000000004,132.81260652542113L38.71815384615385,144.07998559474944L39.764307692307696,134.0524899482727L40.81046153846154,137.60926122665404L41.85661538461539,137.56101288795472L42.90276923076923,140.36711275577545L43.94892307692308,134.50286436080933L44.99507692307692,142.3770301580429L46.04123076923077,137.216637134552L47.087384615384615,142.7379463195801L48.13353846153846,140.7971697330475L49.17969230769231,136.76811940670012L50.22584615384615,129.39241721630097L51.272,134.82304167747498L52.31815384615384,139.90007486343384L53.36430769230769,136.25791943073273L54.41046153846153,142.84470781087876L55.45661538461538,139.42174832820893L56.502769230769225,145.55179651975632L57.548923076923074,137.51922793388366L58.59507692307692,128.74668350219727L59.64123076923077,136.18200755119324L60.687384615384616,133.22692306041716L61.733538461538465,134.16722033023834L62.77969230769231,131.62577123641967L63.82584615384616,136.57306566238404L64.872,137.88143634796143L65.91815384615384,124.1022599697113L66.96430769230768,126.66881144046783L68.01046153846154,141.06561450958253L69.05661538461538,138.42778544425965L70.10276923076923,131.1497172832489L71.14892307692308,140.45111978054047L72.19507692307693,133.75837624073029L73.24123076923077,141.4926944255829L74.28738461538461,140.40486180782318L75.33353846153847,137.95526237487792L76.37969230769231,133.12160129547118L77.42584615384615,132.3595903158188L78.472,133.10727405548096L79.51815384615385,137.52516508102417L80.5643076923077,137.90469477176666L81.61046153846154,141.56247606277466L82.65661538461538,132.7983768939972L83.70276923076923,139.484512758255L84.74892307692308,129.03398582935333L85.79507692307692,138.436515045166L86.84123076923076,134.22423434257507L87.88738461538462,126.24642310142517L88.93353846153846,141.21619906425477L89.9796923076923,135.7974510192871L91.02584615384615,137.63239233493806L92.072,135.3300120830536L93.11815384615385,143.5724772810936L94.16430769230769,133.65293140411376L95.21046153846153,141.27133092880248L96.25661538461539,134.15171966552734L97.30276923076923,130.62269468307494L98.34892307692307,139.63685002326966L99.39507692307691,131.70397055149078L100.44123076923077,133.87554895877838L101.48738461538461,138.29137535095214L102.53353846153846,128.25614104270934L103.5796923076923,137.03094744682312L104.62584615384615,138.9224083662033L105.672,138.84489443302155L106.71815384615384,137.94681074619294L107.76430769230768,139.59437756538392L108.81046153846154,127.14727590084075L109.8566153846154,131.4528831243515L110.90276923076922,136.75033130645753L111.94892307692308,138.34964129924774L112.99507692307694,136.6655349254608L114.04123076923078,131.56885483264924L115.08738461538462,134.33692555427552L116.13353846153846,128.32624945640563L117.1796923076923,139.10186383724212L118.22584615384616,127.82772219181061L119.272,137.7599921941757L120.31815384615385,127.42669315338135L121.36430769230769,133.68398790359498L122.41046153846155,135.44612383842468L123.45661538461539,134.90866136550903L124.50276923076923,134.4690451145172L125.54892307692307,128.2564062833786L126.59507692307693,133.27763707637786L127.64123076923077,137.78648867607117L128.68738461538462,144.03723092079161L129.73353846153844,144.1493757367134L130.7796923076923,139.83896129131318L131.82584615384616,141.1106078147888L132.87199999999999,135.49339396953582L133.91815384615384,142.59161834716798L134.9643076923077,137.98147451877594L136.01046153846153,135.17980523109435L137.05661538461538,132.63893542289733L138.1027692307692,130.7268918275833L139.14892307692307,142.68048882484436L140.1950769230769,135.2394525527954L141.24123076923078,142.3758864402771L142.2873846153846,135.89738521575927L143.33353846153847,146.7843996167183L144.37969230769232,138.53252580165864L145.42584615384615,144.83334548473357L146.47199999999998,138.93071570396424L147.51815384615384,143.71952140331268L148.5643076923077,142.41838648319245L149.61046153846155,129.68612987995147L150.6566153846154,137.66166853904724L151.70276923076923,136.6326556921005L152.7489230769231,133.30581624507903L153.79507692307692,142.71369695663452L154.84123076923078,140.20261898040772L155.8873846153846,139.14711813926698L156.93353846153846,148.3583653330803L157.97969230769232,139.01906418800354L159.02584615384617,140.2366928577423L160.072,146.06193814277648L161.11815384615386,149.94744552373885L162.1643076923077,139.3787814617157L163.21046153846154,137.36506369113923L164.25661538461537,142.08693537712097L165.30276923076923,147.13530453443528L166.34892307692309,141.43833706378936L167.39507692307694,135.84240825176238L168.44123076923077,136.88664379119874L169.48738461538463,136.80313329696656L170.53353846153846,145.9592698454857L171.5796923076923,136.93318610191346L172.62584615384614,142.21465406417846L173.672,140.15254790782927L174.71815384615385,139.03045468330384L175.7643076923077,138.54402027130126L176.81046153846154,140.75137221813202L177.8566153846154,144.54218125343323L178.90276923076922,138.15649728775026L179.94892307692308,136.7967378139496L180.9950769230769,144.72212901115418L182.04123076923076,131.01080968379975L183.0873846153846,139.35626783370972L184.13353846153848,143.74391187429427L185.1796923076923,149.70330315828323L186.22584615384616,141.5083563566208L187.272,142.37412524223328L188.31815384615385,142.08185124397278L189.36430769230768,148.13273252248763L190.41046153846153,145.79565773010253L191.45661538461536,138.16723423004152L192.50276923076925,140.39809074401856L193.54892307692307,145.14132597446442L194.59507692307693,151.95440496206282L195.64123076923076,141.71794953346253L196.68738461538462,144.65344759225846L197.73353846153844,146.1271831035614L198.7796923076923,141.39985382556915L199.82584615384613,140.25235691070557L200.872,136.98995609283446L201.91815384615384,141.21434874534606L202.9643076923077,144.0005332827568L204.01046153846153,145.28805392980576L205.05661538461538,141.48980860710145L206.1027692307692,143.5709187269211L207.14892307692307,144.86100372076035L208.1950769230769,144.0993778705597L209.24123076923078,142.88636226654052L210.2873846153846,144.18585693836212L211.33353846153847,145.89801092147826L212.37969230769232,138.21350917816162L213.42584615384615,137.4144642353058L214.47199999999998,147.12217193841934L215.51815384615384,146.62205641269685L216.5643076923077,144.48353017568587L217.61046153846155,141.07699863910676L218.6566153846154,145.98065779209136L219.70276923076923,147.9833850502968L220.7489230769231,137.50822999477387L221.79507692307692,137.46508700847625L222.84123076923078,145.65366060733794L223.8873846153846,141.14518671035768L224.93353846153846,140.33392796516418L225.97969230769232,141.86736278533937L227.02584615384617,144.62262344360352L228.072,145.533455657959L229.11815384615386,146.97850167751312L230.1643076923077,142.42857384681702L231.21046153846154,144.06402871608734L232.25661538461537,153.10400099158286L233.30276923076923,147.8228051662445L234.34892307692309,140.97316646575928L235.39507692307694,139.79410166740416L236.44123076923077,143.34947353601456L237.48738461538463,142.42634900808335L238.53353846153846,140.66489527225494L239.5796923076923,143.05525797605515L240.62584615384614,145.68835196495056L241.672,143.47924942970275L242.71815384615385,144.9255877017975L243.7643076923077,147.7896447777748L244.81046153846154,143.13912070989608L245.8566153846154,147.32132630348207L246.90276923076922,138.14760854244233L247.94892307692308,146.49023286104202L248.9950769230769,142.0212214708328L250.04123076923076,145.53339624404907L251.0873846153846,144.19751904010772L252.13353846153848,145.60367865562438L253.1796923076923,148.30135556459427L254.22584615384616,143.01983349323274L255.272,141.2181576013565L256.31815384615385,145.1047980904579L257.3643076923077,146.02487341165542L258.4104615384615,144.20442484617234L259.45661538461536,143.1235967040062L260.5027692307692,145.71136212348938L261.5489230769231,144.41369549036025L262.59507692307693,144.89156793355943" style="fill: none;" fill="none"></path></g></g></g></g></g></g><g transform="translate(58, 178)" clip-path="url(#clip_1)"><clipPath id="clip_1"><rect width="271" height="21"></rect></clipPath><g><g><line x1="0" y1="0" x2="0" y2="5" style="visibility: inherit;" fill="rgb(0, 0, 0)" stroke="rgb(204, 204, 204)" stroke-width="1px"></line><line x1="20.923076923076923" y1="0" x2="20.923076923076923" y2="5" style="visibility: inherit;" fill="rgb(0, 0, 0)" stroke="rgb(204, 204, 204)" stroke-width="1px"></line><line x1="41.84615384615385" y1="0" x2="41.84615384615385" y2="5" style="visibility: inherit;" fill="rgb(0, 0, 0)" stroke="rgb(204, 204, 204)" stroke-width="1px"></line><line x1="62.769230769230774" y1="0" x2="62.769230769230774" y2="5" style="visibility: inherit;" fill="rgb(0, 0, 0)" stroke="rgb(204, 204, 204)" stroke-width="1px"></line><line x1="83.6923076923077" y1="0" x2="83.6923076923077" y2="5" style="visibility: inherit;" fill="rgb(0, 0, 0)" stroke="rgb(204, 204, 204)" stroke-width="1px"></line><line x1="104.61538461538463" y1="0" x2="104.61538461538463" y2="5" style="visibility: inherit;" fill="rgb(0, 0, 0)" stroke="rgb(204, 204, 204)" stroke-width="1px"></line><line x1="125.53846153846155" y1="0" x2="125.53846153846155" y2="5" style="visibility: inherit;" fill="rgb(0, 0, 0)" stroke="rgb(204, 204, 204)" stroke-width="1px"></line><line x1="146.46153846153845" y1="0" x2="146.46153846153845" y2="5" style="visibility: inherit;" fill="rgb(0, 0, 0)" stroke="rgb(204, 204, 204)" stroke-width="1px"></line><line x1="167.3846153846154" y1="0" x2="167.3846153846154" y2="5" style="visibility: inherit;" fill="rgb(0, 0, 0)" stroke="rgb(204, 204, 204)" stroke-width="1px"></line><line x1="188.3076923076923" y1="0" x2="188.3076923076923" y2="5" style="visibility: inherit;" fill="rgb(0, 0, 0)" stroke="rgb(204, 204, 204)" stroke-width="1px"></line><line x1="209.23076923076925" y1="0" x2="209.23076923076925" y2="5" style="visibility: inherit;" fill="rgb(0, 0, 0)" stroke="rgb(204, 204, 204)" stroke-width="1px"></line><line x1="230.15384615384616" y1="0" x2="230.15384615384616" y2="5" style="visibility: inherit;" fill="rgb(0, 0, 0)" stroke="rgb(204, 204, 204)" stroke-width="1px"></line><line x1="251.0769230769231" y1="0" x2="251.0769230769231" y2="5" style="visibility: inherit;" fill="rgb(0, 0, 0)" stroke="rgb(204, 204, 204)" stroke-width="1px"></line><line x1="272" y1="0" x2="272" y2="5" style="visibility: inherit;" fill="rgb(0, 0, 0)" stroke="rgb(204, 204, 204)" stroke-width="1px"></line></g><g transform="translate(0, 8)"><text x="0" y="0" dx="0em" dy="0.95em" style="text-anchor: middle; visibility: hidden; font-family: &quot;Helvetica Neue&quot;, sans-serif; font-size: 12px; font-weight: 200;" fill="rgb(50, 49, 63)" stroke="none" stroke-width="1px">-2k</text><text x="20.923076923076923" y="0" dx="0em" dy="0.95em" style="text-anchor: middle; visibility: inherit; font-family: &quot;Helvetica Neue&quot;, sans-serif; font-size: 12px; font-weight: 200;" fill="rgb(50, 49, 63)" stroke="none" stroke-width="1px">0</text><text x="41.84615384615385" y="0" dx="0em" dy="0.95em" style="text-anchor: middle; visibility: hidden; font-family: &quot;Helvetica Neue&quot;, sans-serif; font-size: 12px; font-weight: 200;" fill="rgb(50, 49, 63)" stroke="none" stroke-width="1px">2k</text><text x="62.769230769230774" y="0" dx="0em" dy="0.95em" style="text-anchor: middle; visibility: inherit; font-family: &quot;Helvetica Neue&quot;, sans-serif; font-size: 12px; font-weight: 200;" fill="rgb(50, 49, 63)" stroke="none" stroke-width="1px">4k</text><text x="83.6923076923077" y="0" dx="0em" dy="0.95em" style="text-anchor: middle; visibility: hidden; font-family: &quot;Helvetica Neue&quot;, sans-serif; font-size: 12px; font-weight: 200;" fill="rgb(50, 49, 63)" stroke="none" stroke-width="1px">6k</text><text x="104.61538461538463" y="0" dx="0em" dy="0.95em" style="text-anchor: middle; visibility: inherit; font-family: &quot;Helvetica Neue&quot;, sans-serif; font-size: 12px; font-weight: 200;" fill="rgb(50, 49, 63)" stroke="none" stroke-width="1px">8k</text><text x="125.53846153846155" y="0" dx="0em" dy="0.95em" style="text-anchor: middle; visibility: hidden; font-family: &quot;Helvetica Neue&quot;, sans-serif; font-size: 12px; font-weight: 200;" fill="rgb(50, 49, 63)" stroke="none" stroke-width="1px">10k</text><text x="146.46153846153845" y="0" dx="0em" dy="0.95em" style="text-anchor: middle; visibility: inherit; font-family: &quot;Helvetica Neue&quot;, sans-serif; font-size: 12px; font-weight: 200;" fill="rgb(50, 49, 63)" stroke="none" stroke-width="1px">12k</text><text x="167.3846153846154" y="0" dx="0em" dy="0.95em" style="text-anchor: middle; visibility: hidden; font-family: &quot;Helvetica Neue&quot;, sans-serif; font-size: 12px; font-weight: 200;" fill="rgb(50, 49, 63)" stroke="none" stroke-width="1px">14k</text><text x="188.3076923076923" y="0" dx="0em" dy="0.95em" style="text-anchor: middle; visibility: inherit; font-family: &quot;Helvetica Neue&quot;, sans-serif; font-size: 12px; font-weight: 200;" fill="rgb(50, 49, 63)" stroke="none" stroke-width="1px">16k</text><text x="209.23076923076925" y="0" dx="0em" dy="0.95em" style="text-anchor: middle; visibility: hidden; font-family: &quot;Helvetica Neue&quot;, sans-serif; font-size: 12px; font-weight: 200;" fill="rgb(50, 49, 63)" stroke="none" stroke-width="1px">18k</text><text x="230.15384615384616" y="0" dx="0em" dy="0.95em" style="text-anchor: middle; visibility: inherit; font-family: &quot;Helvetica Neue&quot;, sans-serif; font-size: 12px; font-weight: 200;" fill="rgb(50, 49, 63)" stroke="none" stroke-width="1px">20k</text><text x="251.0769230769231" y="0" dx="0em" dy="0.95em" style="text-anchor: middle; visibility: hidden; font-family: &quot;Helvetica Neue&quot;, sans-serif; font-size: 12px; font-weight: 200;" fill="rgb(50, 49, 63)" stroke="none" stroke-width="1px">22k</text><text x="272" y="0" dx="0em" dy="0.95em" style="text-anchor: middle; visibility: hidden; font-family: &quot;Helvetica Neue&quot;, sans-serif; font-size: 12px; font-weight: 200;" fill="rgb(50, 49, 63)" stroke="none" stroke-width="1px">24k</text></g><line x1="0" y1="0" x2="272" y2="0" fill="rgb(0, 0, 0)" stroke="rgb(204, 204, 204)" stroke-width="1px"></line></g></g></g></g></svg>