<svg xmlns="http://www.w3.org/2000/svg" viewBox="0 0 330 200"><g><g><g><g><g><line x1="58" x2="53" y1="178" y2="178" fill="#000" stroke="#CCC" stroke-width="1" visibility="inherit"/><line x1="58" x2="53" y1="158.222" y2="158.222" fill="#000" stroke="#CCC" stroke-width="1" visibility="inherit"/><line x1="58" x2="53" y1="138.444" y2="138.444" fill="#000" stroke="#CCC" stroke-width="1" visibility="inherit"/><line x1="58" x2="53" y1="118.667" y2="118.667" fill="#000" stroke="#CCC" stroke-width="1" visibility="inherit"/><line x1="58" x2="53" y1="98.889" y2="98.889" fill="#000" stroke="#CCC" stroke-width="1" visibility="inherit"/><line x1="58" x2="53" y1="79.111" y2="79.111" fill="#000" stroke="#CCC" stroke-width="1" visibility="inherit"/><line x1="58" x2="53" y1="59.333" y2="59.333" fill="#000" stroke="#CCC" stroke-width="1" visibility="inherit"/><line x1="58" x2="53" y1="39.556" y2="39.556" fill="#000" stroke="#CCC" stroke-width="1" visibility="inherit"/><line x1="58" x2="53" y1="19.778" y2="19.778" fill="#000" stroke="#CCC" stroke-width="1" visibility="inherit"/><line x1="58" x2="53" y1="0" y2="0" fill="#000" stroke="#CCC" stroke-width="1" visibility="inherit"/></g><g><text x="0" y="178" fill="#32313F" stroke="none" stroke-width="1" dx="0em" dy=".3em" font-family="&quot;Helvetica Neue&quot;, sans-serif" font-size="12" font-weight="200" text-anchor="end" transform="translate(48, 0)" visibility="hidden">0.13</text><text x="0" y="158.222" fill="#32313F" stroke="none" stroke-width="1" dx="0em" dy=".3em" font-family="&quot;Helvetica Neue&quot;, sans-serif" font-size="12" font-weight="200" text-anchor="end" transform="translate(48, 0)" visibility="inherit">0.14</text><text x="0" y="138.444" fill="#32313F" stroke="none" stroke-width="1" dx="0em" dy=".3em" font-family="&quot;Helvetica Neue&quot;, sans-serif" font-size="12" font-weight="200" text-anchor="end" transform="translate(48, 0)" visibility="hidden">0.15</text><text x="0" y="118.667" fill="#32313F" stroke="none" stroke-width="1" dx="0em" dy=".3em" font-family="&quot;Helvetica Neue&quot;, sans-serif" font-size="12" font-weight="200" text-anchor="end" transform="translate(48, 0)" visibility="inherit">0.16</text><text x="0" y="98.889" fill="#32313F" stroke="none" stroke-width="1" dx="0em" dy=".3em" font-family="&quot;Helvetica Neue&quot;, sans-serif" font-size="12" font-weight="200" text-anchor="end" transform="translate(48, 0)" visibility="hidden">0.17</text><text x="0" y="79.111" fill="#32313F" stroke="none" stroke-width="1" dx="0em" dy=".3em" font-family="&quot;Helvetica Neue&quot;, sans-serif" font-size="12" font-weight="200" text-anchor="end" transform="translate(48, 0)" visibility="inherit">0.18</text><text x="0" y="59.333" fill="#32313F" stroke="none" stroke-width="1" dx="0em" dy=".3em" font-family="&quot;Helvetica Neue&quot;, sans-serif" font-size="12" font-weight="200" text-anchor="end" transform="translate(48, 0)" visibility="hidden">0.19</text><text x="0" y="39.556" fill="#32313F" stroke="none" stroke-width="1" dx="0em" dy=".3em" font-family="&quot;Helvetica Neue&quot;, sans-serif" font-size="12" font-weight="200" text-anchor="end" transform="translate(48, 0)" visibility="inherit">0.2</text><text x="0" y="19.778" fill="#32313F" stroke="none" stroke-width="1" dx="0em" dy=".3em" font-family="&quot;Helvetica Neue&quot;, sans-serif" font-size="12" font-weight="200" text-anchor="end" transform="translate(48, 0)" visibility="hidden">0.21</text><text x="0" y="0" fill="#32313F" stroke="none" stroke-width="1" dx="0em" dy=".3em" font-family="&quot;Helvetica Neue&quot;, sans-serif" font-size="12" font-weight="200" text-anchor="end" transform="translate(48, 0)" visibility="hidden">0.22</text></g><line x1="58" x2="58" y1="0" y2="178" fill="#000" stroke="#CCC" stroke-width="1"/></g></g><g clip-path="url(#clip_0)" transform="translate(58, 0)"><clipPath id="clip_0"><rect width="271" height="177"/></clipPath><g><g><g><line x1="0" x2="0" y1="0" y2="178" fill="#000" stroke="#3C3C3C" stroke-width="1" opacity=".25"/><line x1="22.667" x2="22.667" y1="0" y2="178" fill="#000" stroke="#3C3C3C" stroke-width="1" opacity=".25"/><line x1="45.333" x2="45.333" y1="0" y2="178" fill="#000" stroke="#3C3C3C" stroke-width="1" opacity=".25"/><line x1="68" x2="68" y1="0" y2="178" fill="#000" stroke="#3C3C3C" stroke-width="1" opacity=".25"/><line x1="90.667" x2="90.667" y1="0" y2="178" fill="#000" stroke="#3C3C3C" stroke-width="1" opacity=".25"/><line x1="113.333" x2="113.333" y1="0" y2="178" fill="#000" stroke="#3C3C3C" stroke-width="1" opacity=".25"/><line x1="136" x2="136" y1="0" y2="178" fill="#000" stroke="#3C3C3C" stroke-width="1" opacity=".25"/><line x1="158.667" x2="158.667" y1="0" y2="178" fill="#000" stroke="#3C3C3C" stroke-width="1" opacity=".25"/><line x1="181.333" x2="181.333" y1="0" y2="178" fill="#000" stroke="#3C3C3C" stroke-width="1" opacity=".25"/><line x1="204" x2="204" y1="0" y2="178" fill="#000" stroke="#3C3C3C" stroke-width="1" opacity=".25"/><line x1="226.667" x2="226.667" y1="0" y2="178" fill="#000" stroke="#3C3C3C" stroke-width="1" opacity=".25"/><line x1="249.333" x2="249.333" y1="0" y2="178" fill="#000" stroke="#3C3C3C" stroke-width="1" opacity=".25"/><line x1="272" x2="272" y1="0" y2="178" fill="#000" stroke="#3C3C3C" stroke-width="1" opacity=".25"/></g><g><line x1="0" x2="272" y1="178" y2="178" fill="#000" stroke="#3C3C3C" stroke-width="1" opacity=".25"/><line x1="0" x2="272" y1="158.222" y2="158.222" fill="#000" stroke="#3C3C3C" stroke-width="1" opacity=".25"/><line x1="0" x2="272" y1="138.444" y2="138.444" fill="#000" stroke="#3C3C3C" stroke-width="1" opacity=".25"/><line x1="0" x2="272" y1="118.667" y2="118.667" fill="#000" stroke="#3C3C3C" stroke-width="1" opacity=".25"/><line x1="0" x2="272" y1="98.889" y2="98.889" fill="#000" stroke="#3C3C3C" stroke-width="1" opacity=".25"/><line x1="0" x2="272" y1="79.111" y2="79.111" fill="#000" stroke="#3C3C3C" stroke-width="1" opacity=".25"/><line x1="0" x2="272" y1="59.333" y2="59.333" fill="#000" stroke="#3C3C3C" stroke-width="1" opacity=".25"/><line x1="0" x2="272" y1="39.556" y2="39.556" fill="#000" stroke="#3C3C3C" stroke-width="1" opacity=".25"/><line x1="0" x2="272" y1="19.778" y2="19.778" fill="#000" stroke="#3C3C3C" stroke-width="1" opacity=".25"/><line x1="0" x2="272" y1="0" y2="0" fill="#000" stroke="#3C3C3C" stroke-width="1" opacity=".25"/></g></g></g><g><g><line x1="0" x2="272" y1="435.111" y2="435.111" fill="#000" stroke="#999" stroke-width="1.5"/></g></g><g><g><line x1="0" x2="0" y1="0" y2="178" fill="#000" stroke="#999" stroke-width="1.5"/></g></g><g><g><g><g><g><path fill="none" stroke="#07B" stroke-width="2" d="M11.197333333333333,124.29776261912457L22.564666666666664,137.12297785447703L45.775333333333336,111.62192005743513L56.66666666666667,93.45469075436492L67.85266666666666,78.56307677381051L79.16333333333333,57.92103140130472L90.48533333333333,45.8537350695286L101.81866666666667,33.75393569626999L124.99533333333333,29.556720905447776L136.31733333333332,34.49922590227419L147.628,39.38610667021544L158.93866666666668,43.58587966726461L170,55.36317717706466L181.26533333333333,63.860134252039856L192.56466666666668,76.41251221349975L203.88666666666668,83.34805899026226L215.19733333333335,94.04244842614348L226.508,101.39798469066405L226.66666666666669,107.66499716295044L237.97733333333335,108.89764294220302L249.20866666666666,118.34422993429776L260.4626666666667,126.15056580880417L260.6666666666667,129.32049628306362"/></g></g></g></g><g opacity=".2"><g><g><g><path fill="none" stroke="#07B" stroke-width="2" d="M11.197333333333333,124.29776261912453L22.564666666666664,144.81810699568854L45.775333333333336,87.14090457227495L56.66666666666667,72.0900290939543L67.85266666666666,59.120585560798645L79.16333333333333,29.365651514795104L90.48533333333333,28.59730823834738L101.81866666666667,16.112312051984986L124.99533333333333,23.36664435598584L136.31733333333332,41.838269803259095L147.628,46.67210417323642L158.93866666666668,49.86268418365054L170,72.99066852198708L181.26533333333333,76.5889234410392L192.56466666666668,95.22632430659401L203.88666666666668,93.7464876704746L215.19733333333335,110.07950707276663L226.508,112.42942151758406L226.66666666666669,117.0645611551073L237.97733333333335,110.7464989423752L249.20866666666666,132.5135923491584L260.4626666666667,137.8598127497567L260.6666666666667,134.07532940970526"/></g></g></g></g></g></g><g clip-path="url(#clip_1)" transform="translate(58, 178)"><clipPath id="clip_1"><rect width="271" height="21"/></clipPath><g><g><line x1="0" x2="0" y1="0" y2="5" fill="#000" stroke="#CCC" stroke-width="1" visibility="inherit"/><line x1="22.667" x2="22.667" y1="0" y2="5" fill="#000" stroke="#CCC" stroke-width="1" visibility="inherit"/><line x1="45.333" x2="45.333" y1="0" y2="5" fill="#000" stroke="#CCC" stroke-width="1" visibility="inherit"/><line x1="68" x2="68" y1="0" y2="5" fill="#000" stroke="#CCC" stroke-width="1" visibility="inherit"/><line x1="90.667" x2="90.667" y1="0" y2="5" fill="#000" stroke="#CCC" stroke-width="1" visibility="inherit"/><line x1="113.333" x2="113.333" y1="0" y2="5" fill="#000" stroke="#CCC" stroke-width="1" visibility="inherit"/><line x1="136" x2="136" y1="0" y2="5" fill="#000" stroke="#CCC" stroke-width="1" visibility="inherit"/><line x1="158.667" x2="158.667" y1="0" y2="5" fill="#000" stroke="#CCC" stroke-width="1" visibility="inherit"/><line x1="181.333" x2="181.333" y1="0" y2="5" fill="#000" stroke="#CCC" stroke-width="1" visibility="inherit"/><line x1="204" x2="204" y1="0" y2="5" fill="#000" stroke="#CCC" stroke-width="1" visibility="inherit"/><line x1="226.667" x2="226.667" y1="0" y2="5" fill="#000" stroke="#CCC" stroke-width="1" visibility="inherit"/><line x1="249.333" x2="249.333" y1="0" y2="5" fill="#000" stroke="#CCC" stroke-width="1" visibility="inherit"/><line x1="272" x2="272" y1="0" y2="5" fill="#000" stroke="#CCC" stroke-width="1" visibility="inherit"/></g><g><text x="0" y="0" fill="#32313F" stroke="none" stroke-width="1" dx="0em" dy=".95em" font-family="&quot;Helvetica Neue&quot;, sans-serif" font-size="12" font-weight="200" text-anchor="middle" transform="translate(0, 8)" visibility="hidden">0</text><text x="22.667" y="0" fill="#32313F" stroke="none" stroke-width="1" dx="0em" dy=".95em" font-family="&quot;Helvetica Neue&quot;, sans-serif" font-size="12" font-weight="200" text-anchor="middle" transform="translate(0, 8)" visibility="inherit">2k</text><text x="45.333" y="0" fill="#32313F" stroke="none" stroke-width="1" dx="0em" dy=".95em" font-family="&quot;Helvetica Neue&quot;, sans-serif" font-size="12" font-weight="200" text-anchor="middle" transform="translate(0, 8)" visibility="hidden">4k</text><text x="68" y="0" fill="#32313F" stroke="none" stroke-width="1" dx="0em" dy=".95em" font-family="&quot;Helvetica Neue&quot;, sans-serif" font-size="12" font-weight="200" text-anchor="middle" transform="translate(0, 8)" visibility="inherit">6k</text><text x="90.667" y="0" fill="#32313F" stroke="none" stroke-width="1" dx="0em" dy=".95em" font-family="&quot;Helvetica Neue&quot;, sans-serif" font-size="12" font-weight="200" text-anchor="middle" transform="translate(0, 8)" visibility="hidden">8k</text><text x="113.333" y="0" fill="#32313F" stroke="none" stroke-width="1" dx="0em" dy=".95em" font-family="&quot;Helvetica Neue&quot;, sans-serif" font-size="12" font-weight="200" text-anchor="middle" transform="translate(0, 8)" visibility="inherit">10k</text><text x="136" y="0" fill="#32313F" stroke="none" stroke-width="1" dx="0em" dy=".95em" font-family="&quot;Helvetica Neue&quot;, sans-serif" font-size="12" font-weight="200" text-anchor="middle" transform="translate(0, 8)" visibility="hidden">12k</text><text x="158.667" y="0" fill="#32313F" stroke="none" stroke-width="1" dx="0em" dy=".95em" font-family="&quot;Helvetica Neue&quot;, sans-serif" font-size="12" font-weight="200" text-anchor="middle" transform="translate(0, 8)" visibility="inherit">14k</text><text x="181.333" y="0" fill="#32313F" stroke="none" stroke-width="1" dx="0em" dy=".95em" font-family="&quot;Helvetica Neue&quot;, sans-serif" font-size="12" font-weight="200" text-anchor="middle" transform="translate(0, 8)" visibility="hidden">16k</text><text x="204" y="0" fill="#32313F" stroke="none" stroke-width="1" dx="0em" dy=".95em" font-family="&quot;Helvetica Neue&quot;, sans-serif" font-size="12" font-weight="200" text-anchor="middle" transform="translate(0, 8)" visibility="inherit">18k</text><text x="226.667" y="0" fill="#32313F" stroke="none" stroke-width="1" dx="0em" dy=".95em" font-family="&quot;Helvetica Neue&quot;, sans-serif" font-size="12" font-weight="200" text-anchor="middle" transform="translate(0, 8)" visibility="hidden">20k</text><text x="249.333" y="0" fill="#32313F" stroke="none" stroke-width="1" dx="0em" dy=".95em" font-family="&quot;Helvetica Neue&quot;, sans-serif" font-size="12" font-weight="200" text-anchor="middle" transform="translate(0, 8)" visibility="inherit">22k</text><text x="272" y="0" fill="#32313F" stroke="none" stroke-width="1" dx="0em" dy=".95em" font-family="&quot;Helvetica Neue&quot;, sans-serif" font-size="12" font-weight="200" text-anchor="middle" transform="translate(0, 8)" visibility="hidden">24k</text></g><line x1="0" x2="272" y1="0" y2="0" fill="#000" stroke="#CCC" stroke-width="1"/></g></g></g></g></svg>